<svg width="120" height="121" viewBox="0 0 120 121" fill="none" xmlns="http://www.w3.org/2000/svg">
<path d="M37.45 44.8675L37.5389 44.9788L37.4456 45.0865L35.2027 47.674L35.0733 47.5618L35.2027 47.674C34.9797 47.9313 34.9272 48.2954 35.0685 48.6053C35.21 48.9152 35.519 49.114 35.8592 49.114H46.2625C52.4778 49.114 57.5348 44.0533 57.5348 37.8329C57.5348 31.6125 52.4779 26.5516 46.2625 26.5516C40.047 26.5516 34.9901 31.6123 34.9901 37.8327C34.9901 40.4095 35.8576 42.8739 37.45 44.8675Z" fill="#E85D75" stroke="#333333" stroke-width="0.342457"/>
<path d="M79.002 44.1893L79.085 44.2106L79.1517 44.157L82.1058 41.7854L91.0758 39.8475L91.9415 39.6605L96.2081 59.4098L69.7641 65.1227L65.4975 45.3734L75.3324 43.2487L79.002 44.1893Z" fill="#F2A4B2" stroke="#333333" stroke-width="0.342457"/>
<path d="M76.927 50.4356L70.2324 51.8819C69.8624 51.9618 69.4982 51.7263 69.4184 51.3572C69.3385 50.987 69.573 50.6232 69.9432 50.5433L76.6378 49.097C77.0073 49.0171 77.3718 49.2516 77.4518 49.6217C77.5315 49.9907 77.296 50.3559 76.927 50.4356Z" fill="#E85D75" stroke="#333333" stroke-width="0.342457"/>
<path d="M78.011 55.4571L71.3163 56.9034C70.9463 56.9833 70.5822 56.7478 70.5024 56.3787C70.4225 56.0085 70.657 55.6447 71.0271 55.5647L77.7218 54.1184C78.0913 54.0386 78.4558 54.2731 78.5358 54.6432C78.6155 55.0122 78.38 55.3774 78.011 55.4571Z" fill="#E85D75" stroke="#333333" stroke-width="0.342457"/>
<path d="M90.8404 46.7296L90.8405 46.7297C90.9205 47.0985 90.6852 47.4637 90.3157 47.5435L83.621 48.9898C83.251 49.0697 82.8869 48.8342 82.8071 48.4651C82.7271 48.0949 82.9617 47.7311 83.3318 47.6512L90.0265 46.2049C90.396 46.125 90.7605 46.3595 90.8404 46.7296Z" fill="#E85D75" stroke="#333333" stroke-width="0.342457"/>
<path d="M91.9244 51.7506L91.9245 51.7507C92.0044 52.1195 91.7692 52.4847 91.3997 52.5645L84.705 54.0108C84.335 54.0907 83.9708 53.8552 83.8911 53.4861C83.8111 53.1159 84.0457 52.7521 84.4158 52.6722L91.1105 51.2259C91.48 51.146 91.8445 51.3805 91.9244 51.7506Z" fill="#E85D75" stroke="#333333" stroke-width="0.342457"/>
<path d="M79.096 60.4781L72.4013 61.9244C72.0313 62.0043 71.6671 61.7688 71.5874 61.3997C71.5074 61.0295 71.742 60.6657 72.1121 60.5857L78.8068 59.1394C79.1763 59.0596 79.5408 59.2941 79.6207 59.6642C79.7004 60.0332 79.465 60.3984 79.096 60.4781Z" fill="#E85D75" stroke="#333333" stroke-width="0.342457"/>
<path d="M93.0094 56.7716L93.0094 56.7717C93.0894 57.1405 92.8541 57.5057 92.4847 57.5855L85.79 59.0318C85.42 59.1117 85.0558 58.8762 84.9761 58.5071C84.8961 58.1369 85.1306 57.7731 85.5008 57.6932L92.1955 56.2469C92.5649 56.167 92.9294 56.4015 93.0094 56.7716Z" fill="#E85D75" stroke="#333333" stroke-width="0.342457"/>
<path d="M93.8647 44.0154L100.279 34.0206L103.73 36.2352L97.3154 46.23L93.8647 44.0154Z" fill="#FCE7DB" stroke="#333333" stroke-width="0.342457"/>
<path d="M97.2942 46.1566L97.2943 46.1566C97.3383 46.1849 97.3418 46.2481 97.301 46.281L97.3009 46.281L92.4099 50.2241C92.3524 50.2704 92.2692 50.2168 92.2873 50.1454L92.2873 50.1454L93.8347 44.0561L93.8347 44.0561C93.8475 44.0055 93.9064 43.9821 93.9506 44.0105L97.2942 46.1566Z" fill="#FCE7DB" stroke="#333333" stroke-width="0.342457"/>
<path d="M21.9636 65.0721L22.4672 64.9224C25.9001 63.9022 28.7964 61.0936 30.0497 57.792L30.2098 57.8528L30.0497 57.792C30.9359 55.4578 30.611 52.629 29.399 50.3178C28.1875 48.0075 26.1053 46.2417 23.5022 45.9942C22.5665 45.9053 21.6525 45.9817 20.7726 46.1779L20.7599 46.1807L20.7469 46.1816C15.7497 46.52 10.6629 49.7581 10.2523 55.0768L10.2523 55.0768C9.89362 59.7184 12.8051 63.7088 17.0075 64.9397L17.4643 65.0735L17.0269 65.2613C14.3973 66.3909 12.2069 69.2638 10.967 72.4763C9.72639 75.6905 9.46015 79.1847 10.6065 81.5345L10.6297 81.5821L10.622 81.6345C10.5594 82.0606 10.6878 82.5228 10.9543 82.8691C11.2188 83.2128 11.6108 83.433 12.0777 83.4022C13.0611 83.3373 14.0195 83.2357 14.9774 83.1342C15.4014 83.0893 15.8253 83.0443 16.2513 83.0026C17.6363 82.8669 19.0355 82.7659 20.501 82.8138C20.6668 82.8192 20.8325 82.8246 20.9979 82.8301C23.828 82.9239 26.6003 83.0157 29.3937 82.5877M21.9636 65.0721L29.4196 82.757M21.9636 65.0721L22.4586 65.2479C25.306 66.2592 27.2025 68.7583 28.4576 71.7434C29.7118 74.7266 30.3137 78.1684 30.5872 81.0161M21.9636 65.0721L30.7576 80.9998M29.3937 82.5877L29.4196 82.757M29.3937 82.5877C29.3936 82.5877 29.3936 82.5877 29.3936 82.5877L29.4196 82.757M29.3937 82.5877C29.7039 82.5401 30.0201 82.3177 30.254 82.0068C30.4878 81.696 30.6168 81.3266 30.5872 81.0161M29.4196 82.757C30.1557 82.6439 30.8274 81.7299 30.7576 80.9998M30.5872 81.0161C30.5872 81.0161 30.5872 81.0162 30.5872 81.0162L30.7576 80.9998M30.5872 81.0161L30.7576 80.9998M22.516 65.0866L22.5733 64.9252C22.6439 64.9503 22.7141 64.9763 22.7836 65.0031C22.6948 65.0321 22.6055 65.0599 22.516 65.0866ZM22.516 65.0866L22.5647 65.2507C22.6361 65.2295 22.7073 65.2075 22.7782 65.1848C22.6917 65.1507 22.6043 65.1179 22.516 65.0866Z" fill="#FCE7DB" stroke="#333333" stroke-width="0.342457"/>
<path d="M93.862 76.3092L93.4873 76.4525L93.85 76.6239C96.4282 77.8423 97.9854 80.3594 98.9609 83.3175C99.9358 86.2742 100.32 89.6411 100.572 92.5164L100.743 92.5014L100.572 92.5164C100.611 92.9558 100.415 93.3614 100.092 93.6642C99.768 93.9681 99.3282 94.1554 98.9091 94.1614C95.8237 94.2056 92.7342 94.4256 89.6585 94.6445C89.0917 94.6849 88.5254 94.7252 87.9597 94.7643L87.9596 94.7644C87.7419 94.7795 87.4584 94.8151 87.14 94.8551C87.008 94.8716 86.87 94.889 86.7282 94.9059C86.2391 94.9643 85.6943 95.0196 85.1577 95.0305C84.6199 95.0413 84.0985 95.0073 83.6541 94.8912C83.2095 94.775 82.8577 94.581 82.6365 94.2839L82.6308 94.2763L82.6244 94.2694C82.5653 94.2059 82.5163 94.1288 82.473 94.0407L82.4145 93.9214L82.2844 93.9485C82.0182 94.004 81.7399 93.976 81.5152 93.8616C81.2949 93.7496 81.1191 93.5516 81.0503 93.2457C80.4099 90.3934 80.497 86.3837 81.6201 82.9322C82.7438 79.4786 84.887 76.6294 88.3275 76.0037L88.7929 75.9191L88.3811 75.6862C88.3691 75.6794 88.3571 75.6726 88.3451 75.6659C88.2099 75.5894 88.078 75.5149 87.9448 75.4312L87.9448 75.4311C84.0709 72.9966 81.7782 68.7766 83.6613 64.2813L83.6614 64.2812C83.8332 63.8702 84.0334 63.475 84.2488 63.0893L84.2578 63.0733L84.2631 63.0558C84.7415 61.4896 85.6564 60.066 87.0019 59.0395L87.0019 59.0395C89.7184 56.967 93.985 56.6867 96.6347 58.9969C98.8391 60.9194 99.6977 64.1174 99.5182 66.996C99.3956 68.9622 98.7926 70.984 97.8114 72.669C96.8297 74.355 95.477 75.6915 93.862 76.3092ZM95.9906 64.0725C95.7802 63.2921 95.3887 62.7698 94.869 62.4541L94.6426 62.7024C95.1826 63.4312 95.5947 64.4095 95.8265 65.4567L96.1649 65.4207C96.1674 64.9808 96.1139 64.5295 95.9906 64.0725Z" fill="#FCE7DB" stroke="#333333" stroke-width="0.342457"/>
<path d="M57.561 76.9981L57.9251 76.8793C60.1402 76.1564 61.8599 74.3126 62.9295 72.0266C63.9988 69.7413 64.4084 67.0332 64.0182 64.6145C63.5066 61.4468 61.7129 58.7338 58.609 57.7238C56.5618 57.0579 54.3155 57.3819 52.3281 58.3301C50.3403 59.2785 48.6272 60.8442 47.6492 62.6361M57.561 76.9981L47.6492 62.6361M57.561 76.9981L57.8923 77.1902M57.561 76.9981L57.8923 77.1902M47.6492 62.6361C47.0866 63.6669 46.776 64.755 46.671 65.8455M47.6492 62.6361L46.671 65.8455M57.8923 77.1902C57.9396 77.2176 57.985 77.2431 58.0291 77.2679C58.1266 77.3227 58.2183 77.3742 58.3128 77.4364C60.4433 78.8399 62.7438 81.2976 63.9883 84.0109C65.2316 86.7216 65.4092 89.653 63.3658 92.0597L63.4963 92.1705L63.3658 92.0597C61.4527 94.3131 58.6828 94.8835 55.7076 94.8614C54.2212 94.8504 52.6934 94.6916 51.2068 94.5261C51.0808 94.5121 50.955 94.498 50.8296 94.4839C49.4793 94.3327 48.1677 94.1858 46.9723 94.1547C46.4435 94.1408 46.0554 93.9469 45.7933 93.6678C45.5289 93.3863 45.3836 93.0082 45.3618 92.6145L45.3593 92.5702L45.3357 92.5327C43.6541 89.8625 43.8328 86.3612 45.175 83.264C46.5172 80.1669 49.0055 77.5163 51.8799 76.5452L52.2859 76.408L51.8971 76.2276C49.8542 75.2797 48.1183 73.8426 47.1076 72.0716C46.0997 70.3054 45.8079 68.1991 46.6612 65.8884L46.6689 65.8675M57.8923 77.1902L46.6689 65.8675M46.6689 65.8675L46.671 65.8455M46.6689 65.8675L46.671 65.8455" fill="#F5AE85" stroke="#333333" stroke-width="0.342457"/>
<path d="M45.0134 45.2528C44.9004 45.8276 44.3432 46.2019 43.769 46.089C43.1947 45.9761 42.8208 45.4187 42.9338 44.8439C43.0468 44.2691 43.604 43.8948 44.1782 44.0077C44.7524 44.1206 45.1264 44.678 45.0134 45.2528Z" fill="#FCE7DB" stroke="#333333" stroke-width="0.135556"/>
<path d="M41.8733 33.8754L41.8733 33.8755C41.8089 34.0617 41.7569 34.2547 41.7186 34.4494C41.6056 35.0241 41.9796 35.5816 42.5538 35.6945C43.128 35.8074 43.6852 35.433 43.7982 34.8583L41.8733 33.8754ZM41.8733 33.8754C42.5769 31.8388 44.6994 30.6484 46.8041 31.1072L46.8041 31.1073M41.8733 33.8754L46.8041 31.1073M46.8041 31.1073C48.9739 31.5795 50.4272 33.6719 50.1122 35.8701C49.9444 37.0407 49.3224 38.0613 48.3603 38.7446C47.7198 39.1996 46.9655 39.4649 46.192 39.5201L46.1403 39.5238M46.8041 31.1073L46.1403 39.5238M46.1403 39.5238L46.1303 39.5746L45.6731 41.8997L45.6731 41.8997C45.5603 42.4744 45.003 42.8487 44.4289 42.7358C43.8547 42.6229 43.4807 42.0655 43.5937 41.4907L44.2394 38.2067C44.3524 37.6319 44.9096 37.2576 45.4838 37.3705C46.0643 37.4847 46.6507 37.3583 47.1342 37.0149L47.095 36.9596M46.1403 39.5238L47.095 36.9596M47.095 36.9596L47.1342 37.0149C47.6173 36.6718 47.9299 36.1582 48.0142 35.5695M47.095 36.9596L48.0142 35.5695M48.0142 35.5695C48.1723 34.4665 47.4428 33.417 46.3534 33.18M48.0142 35.5695L46.3534 33.18M46.3534 33.18C46.339 33.1768 46.3247 33.1738 46.3103 33.171C45.2658 32.9656 44.2249 33.5598 43.8764 34.568L46.3534 33.18Z" fill="#FCE7DB" stroke="#333333" stroke-width="0.135556"/>
</svg>
