<svg width="120" height="121" viewBox="0 0 120 121" fill="none" xmlns="http://www.w3.org/2000/svg">
<path d="M80.262 19.4869L80.2824 19.4927L80.3036 19.4919C82.6325 19.4032 84.9216 20.5532 86.2954 22.9075C88.1428 26.075 87.7497 30.1541 84.9707 32.6852C82.3943 35.0312 78.3212 36.0131 75.3731 33.7408L75.3731 33.7408C72.2439 31.3296 70.9719 27.6934 72.3902 23.9263C73.6359 20.6181 76.8302 18.5008 80.262 19.4869Z" fill="#F5AE85" stroke="#333333" stroke-width="0.264706"/>
<path d="M71.3512 50.1345C71.3692 49.7432 71.3766 49.3374 71.384 48.9279C71.3869 48.7724 71.3897 48.6163 71.3932 48.4603L71.3957 48.346L71.2829 48.3269C71.2532 48.3219 71.2272 48.3179 71.2025 48.3142C71.1696 48.3091 71.1389 48.3045 71.1042 48.298L71.0043 48.2794L70.9606 48.3711C69.5488 51.329 69.4272 54.549 69.5053 57.8069L69.5083 57.9315L69.6329 57.936C70.0579 57.9513 70.4822 57.9721 70.9076 57.993C71.075 58.0012 71.2425 58.0094 71.4103 58.0173L71.5592 58.0243L71.5486 57.8757C71.3655 55.3042 71.2363 52.6897 71.3512 50.1345ZM71.3512 50.1345L71.219 50.1285M71.3512 50.1345C71.3512 50.1345 71.3512 50.1345 71.3512 50.1344L71.219 50.1285M71.219 50.1285C71.1057 52.6474 71.229 55.222 71.4072 57.7522C71.4124 57.7524 71.4176 57.7527 71.4228 57.7529L71.4166 57.8851L71.2845 57.8945C71.2842 57.8893 71.2838 57.884 71.2834 57.8788C71.1606 57.8729 71.0377 57.8669 70.9149 57.8608C70.4892 57.84 70.0635 57.8191 69.6377 57.8038C69.5596 54.5481 69.6827 51.3556 71.08 48.4281C71.1153 48.4347 71.1508 48.4401 71.1863 48.4456C71.2111 48.4494 71.236 48.4532 71.2608 48.4574C71.2574 48.6146 71.2545 48.7713 71.2517 48.9272C71.2442 49.3361 71.2368 49.7391 71.219 50.1285ZM89.3379 58.16L89.3379 58.1602C89.3199 58.2636 89.2836 58.3602 89.2468 58.4459L89.2136 58.5232L89.1295 58.5259C88.175 58.5571 87.219 58.5646 86.2648 58.5627L86.1363 58.5625L86.1328 58.4339C86.1105 57.613 86.0815 56.7921 86.0524 55.9706L86.0496 55.891C86.0196 55.043 85.9899 54.1943 85.9678 53.3453M89.3379 58.16L86.1001 53.3419M89.3379 58.16C89.4513 57.504 89.4617 56.8229 89.4261 56.1674C89.3355 54.4984 89.0812 52.8355 88.6189 51.2238M89.3379 58.16L88.4916 51.2603M85.9678 53.3453L86.1001 53.3419M85.9678 53.3453C85.9678 53.3453 85.9678 53.3454 85.9678 53.3454L86.1001 53.3419M85.9678 53.3453C85.9471 52.5697 86.0139 51.7676 86.0977 50.9663C86.1196 50.7574 86.1426 50.5488 86.1655 50.3407C86.2308 49.7477 86.2957 49.1586 86.3329 48.5782L86.3405 48.4601L86.4586 48.4544C86.5989 48.4477 86.7409 48.4401 86.8834 48.4324C87.1108 48.4202 87.3393 48.4079 87.5637 48.3991L87.6577 48.3954L87.6921 48.4828C88.0578 49.4117 88.3664 50.3431 88.6189 51.2238M86.1001 53.3419C86.0743 52.3769 86.1856 51.3667 86.2968 50.3577C86.3622 49.7638 86.4276 49.1703 86.465 48.5866C86.6069 48.5798 86.7496 48.5722 86.8923 48.5645C87.1187 48.5523 87.3451 48.5402 87.569 48.5313C87.9329 49.4559 88.2402 50.3832 88.4916 51.2603M88.6189 51.2238L88.4916 51.2603M88.6189 51.2238C88.6189 51.2239 88.6189 51.2239 88.6189 51.2239L88.4916 51.2603M94.2094 57.8421L94.1561 58.0332L94.353 58.009C95.4582 57.8732 96.5466 57.7945 97.5886 57.928C98.0869 57.9925 98.4646 58.3391 98.5954 58.7386C98.7231 59.129 98.6179 59.5761 98.1295 59.873C96.4604 60.8875 94.1498 61.0567 92.0228 61.1266L91.8125 61.1335L91.9098 61.32C92.4242 62.3069 92.4747 63.7973 92.3564 65.2971C92.2738 66.3443 92.1114 67.3748 91.9781 68.2204C91.921 68.583 91.8692 68.9117 91.8314 69.1931L91.8313 69.1931C91.7839 69.5477 91.5488 69.8029 91.2319 69.9567C90.9128 70.1117 90.5247 70.1557 90.2084 70.092C86.4573 69.3349 82.6979 69.5385 78.9468 69.8652C78.3836 69.9143 77.8207 69.9661 77.2581 70.0179C74.0678 70.3116 70.8851 70.6045 67.7003 70.3899L67.7003 70.3899C67.1697 70.3544 66.6221 70.0362 66.5252 69.5111L66.5251 69.5111C65.9699 66.5129 66.0939 63.5603 66.4215 60.5307L66.4363 60.394L66.2991 60.3845C64.299 60.2455 62.3023 60.0931 60.3132 59.9106C59.7005 59.8544 59.4011 59.4095 59.3999 58.9666C59.3988 58.5247 59.6945 58.084 60.3117 58.0342L60.3117 58.0342C62.2575 57.8771 64.2145 57.8353 66.1765 57.8492L66.3527 57.8504L66.3048 57.6809C65.5894 55.1484 65.0666 52.1275 65.147 49.197C65.2274 46.2655 65.9111 43.4371 67.5959 41.2753L67.5959 41.2753C69.5634 38.7504 72.498 37.3614 75.693 36.6738C78.8878 35.9862 82.3311 36.0028 85.2976 36.2791L85.3099 36.1473L85.2976 36.2791C88.3669 36.5648 90.5993 37.9337 92.0938 39.9523C93.5909 41.9745 94.3536 44.6576 94.4603 47.5758C94.4687 47.805 94.4909 48.1424 94.5184 48.5616C94.5763 49.4433 94.6579 50.687 94.6859 52.0481C94.727 54.0504 94.6495 56.2629 94.2094 57.8421Z" fill="#F5AE85" stroke="#333333" stroke-width="0.264706"/>
<path d="M58.5868 36.2038C58.4286 36.167 58.2538 36.1341 58.0741 36.1003L58.033 36.0925C57.8377 36.0557 57.6364 36.0172 57.4373 35.9701L57.2425 35.924L57.2763 36.1213C57.7981 39.1604 55.5838 41.3352 52.5805 42.8351C49.586 44.3306 45.8683 45.1203 43.5301 45.4026C39.5223 45.8866 34.6286 45.8773 30.2559 44.7009C25.8836 43.5247 22.0485 41.1868 20.1229 37.025L20.0028 37.0806L20.1229 37.025C17.7058 31.801 19.0523 27.132 22.1691 23.5705C25.2912 20.0029 30.188 17.5522 34.8432 16.7978C39.6481 16.0193 45.1932 16.561 49.6656 18.6872C54.1338 20.8115 57.524 24.512 58.055 30.0589L58.067 30.1845L58.193 30.1785C61.1642 30.0387 63.6353 32.7964 64.0693 35.816C64.1281 36.2262 64.0166 36.5663 63.8016 36.7858C63.5876 37.0043 63.2556 37.1192 62.8393 37.0495C61.4139 36.8111 59.9942 36.5304 58.5868 36.2038ZM58.5868 36.2038L58.5568 36.3327M58.5868 36.2038C58.5867 36.2038 58.5867 36.2038 58.5867 36.2038L58.5568 36.3327M58.5568 36.3327C59.9671 36.6599 61.3895 36.9412 62.8174 37.1801C63.7229 37.3316 64.3277 36.685 64.2003 35.7972C63.7601 32.7344 61.2481 29.9022 58.1868 30.0463L57.4292 36.24C57.4116 36.236 57.3939 36.2319 57.3763 36.2277L57.4068 36.0989L57.5372 36.0765C57.5403 36.0945 57.5433 36.1125 57.5463 36.1305C57.7164 36.1676 57.8861 36.1996 58.0489 36.2302C58.2294 36.2642 58.4015 36.2966 58.5568 36.3327ZM52.3368 38.153L52.29 38.1902L52.287 38.2499C52.2805 38.3767 52.2585 38.5132 52.2204 38.6593L52.1093 39.0855L52.437 38.7911C52.7634 38.4977 53.0394 38.1614 53.2512 37.7793L53.4376 37.443L53.0837 37.5933C53.0489 37.6081 53.0141 37.6235 52.981 37.638L52.962 37.6464L52.9465 37.6601C52.7998 37.7898 52.6503 37.9069 52.4971 38.0269C52.4441 38.0684 52.3907 38.1102 52.3368 38.153Z" fill="#F2A4B2" stroke="#333333" stroke-width="0.264706"/>
<path d="M31.1038 89.5131L31.4814 89.4168C32.6251 89.1252 33.6895 88.5372 34.5656 87.5779C36.5879 85.3609 36.9028 81.8346 35.8675 79.0912L35.8675 79.0912C35.1539 77.1994 33.9824 76.0001 32.626 75.3639L32.5662 75.3358L32.5527 75.2712C32.498 75.0104 32.3319 74.7989 32.0197 74.7451C28.0107 74.0564 24.1189 75.57 22.0214 79.1216L31.1038 89.5131ZM31.1038 89.5131L31.4619 89.6667C33.6588 90.6091 35.0913 92.6041 36.0282 94.9522C36.9648 97.2995 37.3988 99.9823 37.6091 102.27L37.6092 102.27C37.6304 102.5 37.534 102.78 37.3586 103.016C37.1831 103.252 36.9473 103.418 36.7163 103.45M31.1038 89.5131L37.7409 102.258C37.7911 102.801 37.2901 103.505 36.7341 103.581M36.7341 103.581L36.7163 103.45M36.7341 103.581L36.7162 103.45C36.7163 103.45 36.7163 103.45 36.7163 103.45M36.7341 103.581C33.317 104.046 29.883 104.211 26.4471 104.375C24.4753 104.47 22.5028 104.564 20.5325 104.716L36.7163 103.45M33.7487 101.102L33.6983 101.286L33.8883 101.269C34.0242 101.256 34.1637 101.246 34.3044 101.235C34.5 101.22 34.6977 101.205 34.8907 101.185L35.0241 101.171L35.0086 101.038C34.9959 100.929 34.9808 100.814 34.9659 100.7C34.961 100.663 34.956 100.625 34.9512 100.588L34.9135 100.297L34.7203 100.518C34.5184 100.748 34.2303 100.897 33.9011 100.903L33.7933 100.905L33.7733 101.011C33.7698 101.029 33.7654 101.044 33.7595 101.064C33.7563 101.075 33.7528 101.087 33.7487 101.102Z" fill="#FCE7DB" stroke="#333333" stroke-width="0.264706"/>
<path d="M51.7826 89.4806L51.3933 89.5963L51.776 89.7322C53.9769 90.5138 55.4428 92.4456 56.4129 94.7529C57.3824 97.0588 57.8477 99.7193 58.059 101.92C58.0819 102.16 57.9822 102.446 57.8015 102.686C57.6207 102.927 57.3763 103.098 57.1364 103.135C54.9773 103.466 52.8344 103.395 50.6469 103.323C50.519 103.318 50.391 103.314 50.2628 103.31C49.13 103.273 48.0485 103.351 46.978 103.456C46.6487 103.488 46.321 103.523 45.9933 103.558C45.2528 103.636 44.5121 103.715 43.7519 103.765L43.7606 103.897L43.7519 103.765C43.391 103.789 43.088 103.618 42.8836 103.353C42.6776 103.085 42.5783 102.728 42.6267 102.398L42.6327 102.358L42.6147 102.321C41.7286 100.505 41.9344 97.8039 42.8934 95.3194C43.8518 92.8363 45.5449 90.6157 47.5775 89.7425L47.9155 89.5973L47.5625 89.4939C44.3142 88.5425 42.0637 85.4581 42.3409 81.8703L42.3409 81.8703C42.6583 77.7591 46.5902 75.2562 50.4529 74.9946L50.4629 74.9939L50.4727 74.9918C51.1529 74.8401 51.8594 74.781 52.5826 74.8498C54.5947 75.0411 56.2042 76.406 57.1406 78.1917C58.0774 79.9783 58.3286 82.1648 57.6436 83.969L57.6436 83.969C56.6748 86.5211 54.4361 88.692 51.7826 89.4806Z" fill="#F5AE85" stroke="#333333" stroke-width="0.264706"/>
<path d="M73.9946 89.3909L73.7049 89.5016L73.9853 89.6341C75.9782 90.5759 77.1818 92.5215 77.9358 94.808C78.6894 97.0934 78.986 99.6959 79.1812 101.918C79.2111 102.258 79.0599 102.572 78.8103 102.806C78.5597 103.041 78.2197 103.185 77.8958 103.19C75.5109 103.224 73.123 103.394 70.7456 103.563C70.3074 103.595 69.8696 103.626 69.4323 103.656L69.4322 103.656C69.264 103.668 69.0449 103.695 68.7988 103.726C68.6967 103.739 68.59 103.752 68.4804 103.765C68.1023 103.811 67.6813 103.853 67.2664 103.862C66.8508 103.87 66.4477 103.844 66.1043 103.754C65.7606 103.664 65.4887 103.514 65.3176 103.285L65.3133 103.279L65.3083 103.273C65.2626 103.224 65.2248 103.165 65.1913 103.097L65.1461 103.004L65.0455 103.025C64.8397 103.068 64.6246 103.047 64.451 102.958C64.2807 102.872 64.1448 102.719 64.0916 102.482C63.5966 100.277 63.6639 97.1781 64.532 94.5102C65.4006 91.8407 67.0573 89.6384 69.7166 89.1548L70.0763 89.0893L69.7581 88.9093C69.7487 88.9041 69.7394 88.8988 69.7301 88.8935C69.6256 88.8345 69.5237 88.7769 69.4208 88.7122L69.4208 88.7121C66.4264 86.8303 64.6542 83.5685 66.1098 80.0938L66.1099 80.0937C66.2427 79.776 66.3974 79.4706 66.5639 79.1724L66.5708 79.1601L66.575 79.1465C66.9448 77.9359 67.6519 76.8355 68.692 76.042L68.692 76.042C70.7917 74.4401 74.0897 74.2234 76.1377 76.0091C77.8417 77.4952 78.5053 79.967 78.3666 82.1921C78.2718 83.7119 77.8057 85.2747 77.0473 86.5771C76.2885 87.8803 75.2429 88.9134 73.9946 89.3909ZM75.6399 79.9324C75.4773 79.3291 75.1747 78.9254 74.773 78.6814L74.5979 78.8734C75.0153 79.4367 75.3339 80.1928 75.5131 81.0023L75.7746 80.9744C75.7766 80.6345 75.7352 80.2856 75.6399 79.9324Z" fill="#FCE7DB" stroke="#333333" stroke-width="0.264706"/>
<path d="M95.5169 90.2026L95.2355 90.2945L95.4916 90.4429C95.5281 90.4642 95.5632 90.4838 95.5973 90.503C95.6727 90.5454 95.7435 90.5852 95.8166 90.6333C97.4634 91.7181 99.2416 93.6178 100.204 95.7151C101.165 97.8103 101.302 100.076 99.7223 101.937L99.8232 102.022L99.7223 101.937C98.2436 103.678 96.1026 104.119 93.8029 104.102C92.6539 104.094 91.473 103.971 90.3239 103.843C90.2265 103.832 90.1293 103.821 90.0323 103.81C88.9886 103.693 87.9749 103.58 87.0509 103.556C86.6421 103.545 86.3421 103.395 86.1395 103.179C85.9351 102.962 85.8228 102.67 85.8059 102.365L85.8041 102.331L85.7858 102.302C84.4859 100.238 84.6241 97.5318 85.6616 95.1378C86.6991 92.7438 88.6224 90.695 90.8442 89.9444L91.158 89.8383L90.8575 89.6989C89.2784 88.9662 87.9366 87.8554 87.1554 86.4864C86.3763 85.1212 86.1508 83.4932 86.8104 81.7071L86.8163 81.691L86.8179 81.6739C86.8991 80.831 87.1392 79.9899 87.574 79.1931C88.33 77.8081 89.6542 76.5979 91.1906 75.8648C92.7268 75.1319 94.4632 74.8814 96.0455 75.3961C98.4448 76.1768 99.8312 78.2739 100.227 80.7224C100.528 82.5919 100.212 84.6852 99.3851 86.4517C98.5584 88.2187 97.2291 89.6439 95.5169 90.2026Z" fill="#F5AE85" stroke="#333333" stroke-width="0.264706"/>
</svg>
