<svg width="120" height="121" viewBox="0 0 120 121" fill="none" xmlns="http://www.w3.org/2000/svg">
<path d="M62.7348 35.3898V20.336H59.029V35.3898H62.7348Z" fill="#E85D75" stroke="#333333" stroke-width="0.264706"/>
<path d="M92.5151 83.5966V55.9878H29.2504V83.5966H92.5151Z" fill="#FCE7DB" stroke="#333333" stroke-width="0.264706"/>
<mask id="path-3-inside-1_22_7004" fill="white">
<path d="M76.7646 56.3782V46.6681L61.007 31.6724L44.9999 46.6487L45.0059 56.1158"/>
</mask>
<path d="M76.7646 56.3782V46.6681L61.007 31.6724L44.9999 46.6487L45.0059 56.1158" fill="#FCE7DB"/>
<path d="M76.7646 46.6681L76.9471 46.4764L77.0294 46.5546V46.6681H76.7646ZM61.007 31.6724L60.8262 31.4791L61.0086 31.3084L61.1895 31.4806L61.007 31.6724ZM44.9999 46.6487L44.7352 46.6489L44.7352 46.5339L44.8191 46.4554L44.9999 46.6487ZM76.4999 56.3782V46.6681H77.0294V56.3782H76.4999ZM76.5822 46.8599L60.8246 31.8641L61.1895 31.4806L76.9471 46.4764L76.5822 46.8599ZM61.1879 31.8657L45.1808 46.842L44.8191 46.4554L60.8262 31.4791L61.1879 31.8657ZM45.2646 46.6485L45.2706 56.1156L44.7412 56.116L44.7352 46.6489L45.2646 46.6485Z" fill="#333333" mask="url(#path-3-inside-1_22_7004)"/>
<path d="M83.4585 66.4398V62.7339H79.6692V66.4398H83.4585Z" fill="#F5AE85" stroke="#333333" stroke-width="0.264706"/>
<path d="M83.4585 76.7792V73.0733H79.6692V76.7792H83.4585Z" fill="#F5AE85" stroke="#333333" stroke-width="0.264706"/>
<path d="M75.185 76.6141V72.9082H71.3958V76.6141H75.185Z" fill="#F5AE85" stroke="#333333" stroke-width="0.264706"/>
<path d="M75.269 66.4398V62.7339H71.4797V66.4398H75.269Z" fill="#F5AE85" stroke="#333333" stroke-width="0.264706"/>
<path d="M66.9966 66.3563V62.6504H63.2073V66.3563H66.9966Z" fill="#F5AE85" stroke="#333333" stroke-width="0.264706"/>
<path d="M66.9966 76.6976V72.9917H63.2073V76.6976H66.9966Z" fill="#F5AE85" stroke="#333333" stroke-width="0.264706"/>
<path d="M58.7231 76.6976V72.9917H54.9358V76.6976H58.7231Z" fill="#F5AE85" stroke="#333333" stroke-width="0.264706"/>
<path d="M58.7231 66.4398V62.7339H54.9358V66.4398H58.7231Z" fill="#F5AE85" stroke="#333333" stroke-width="0.264706"/>
<path d="M42.0964 66.4398V62.7339H38.3091V66.4398H42.0964Z" fill="#F5AE85" stroke="#333333" stroke-width="0.264706"/>
<path d="M50.3696 76.6141V72.9082H46.5803V76.6141H50.3696Z" fill="#F5AE85" stroke="#333333" stroke-width="0.264706"/>
<path d="M42.0964 76.6976V72.9917H38.3091V76.6976H42.0964Z" fill="#F5AE85" stroke="#333333" stroke-width="0.264706"/>
<path d="M50.3696 66.3563V62.6504H46.5803V66.3563H50.3696Z" fill="#F5AE85" stroke="#333333" stroke-width="0.264706"/>
<path d="M66.1264 45.7152V42.0093H62.3392V45.7152H66.1264Z" fill="#F5AE85" stroke="#333333" stroke-width="0.264706"/>
<path d="M66.1264 52.5804V48.8745H62.3392V52.5804H66.1264Z" fill="#F5AE85" stroke="#333333" stroke-width="0.264706"/>
<path d="M59.509 52.4969V48.791H55.7197V52.4969H59.509Z" fill="#F5AE85" stroke="#333333" stroke-width="0.264706"/>
<path d="M59.4262 45.7152V42.0093H55.639V45.7152H59.4262Z" fill="#F5AE85" stroke="#333333" stroke-width="0.264706"/>
<path d="M62.9947 20.4372V28.626L69.8313 24.5316L62.9947 20.4372Z" fill="#F2A4B2" stroke="#333333" stroke-width="0.264706"/>
<path d="M33.9756 82.0287L34.3532 81.9324C35.4969 81.6408 36.5613 81.0528 37.4374 80.0935C39.4598 77.8766 39.7746 74.3503 38.7393 71.6069L38.7393 71.6069C38.0257 69.715 36.8542 68.5158 35.4978 67.8795L35.438 67.8515L35.4245 67.7868C35.3698 67.526 35.2038 67.3146 34.8915 67.2608C30.8825 66.5721 26.9907 68.0856 24.8932 71.6372L33.9756 82.0287ZM33.9756 82.0287L34.3337 82.1823C36.5306 83.1248 37.9632 85.1197 38.9001 87.4678C39.8367 89.8151 40.2707 92.498 40.481 94.7859L40.481 94.786C40.5022 95.0154 40.4058 95.2954 40.2305 95.5313C40.0549 95.7673 39.8191 95.934 39.5881 95.9655M33.9756 82.0287L40.6128 94.7738C40.663 95.3162 40.1619 96.0209 39.6059 96.0967M39.6059 96.0967L39.5881 95.9655M39.6059 96.0967L39.5881 95.9655C39.5881 95.9655 39.5881 95.9655 39.5881 95.9655M39.6059 96.0967C36.1889 96.5616 32.7549 96.7262 29.3189 96.8909C27.3471 96.9854 25.3746 97.08 23.4043 97.2313L39.5881 95.9655M36.6205 93.6176L36.5701 93.8016L36.7601 93.7844C36.896 93.7721 37.0355 93.7614 37.1762 93.7506C37.3718 93.7357 37.5696 93.7205 37.7625 93.7006L37.8959 93.6868L37.8804 93.5537C37.8677 93.4446 37.8527 93.3297 37.8377 93.2159C37.8328 93.1782 37.8279 93.1406 37.823 93.1034L37.7853 92.8125L37.5922 93.0332C37.3903 93.264 37.1021 93.4131 36.773 93.4185L36.6651 93.4202L36.6451 93.5262C36.6417 93.5443 36.6373 93.5593 36.6313 93.5798C36.6282 93.5905 36.6246 93.6027 36.6205 93.6176Z" fill="#F2A4B2" stroke="#333333" stroke-width="0.264706"/>
<path d="M62.3705 87.714L61.9812 87.8297L62.3639 87.9656C64.5648 88.7472 66.0307 90.679 67.0008 92.9863C67.9703 95.2922 68.4356 97.9527 68.6469 100.154C68.6698 100.394 68.5701 100.679 68.3894 100.92C68.2085 101.16 67.9642 101.332 67.7243 101.369C65.5652 101.699 63.4223 101.628 61.2348 101.556C61.1069 101.552 60.9789 101.547 60.8507 101.543C59.7179 101.506 58.6364 101.584 57.5659 101.689C57.2366 101.722 56.9089 101.756 56.5812 101.791C55.8407 101.869 55.1 101.948 54.3398 101.998L54.3485 102.13L54.3398 101.998C53.9789 102.022 53.6759 101.852 53.4715 101.586C53.2655 101.318 53.1662 100.961 53.2146 100.632L53.2206 100.591L53.2026 100.554C52.3165 98.7381 52.5223 96.0373 53.4813 93.5528C54.4397 91.0697 56.1328 88.849 58.1654 87.9759L58.5034 87.8307L58.1503 87.7273C54.9021 86.7759 52.6516 83.6915 52.9288 80.1037L52.9288 80.1037C53.2462 75.9925 57.1781 73.4896 61.0408 73.228L61.0508 73.2273L61.0606 73.2252C61.7408 73.0735 62.4473 73.0144 63.1705 73.0832C65.1826 73.2745 66.7921 74.6394 67.7285 76.4251C68.6653 78.2116 68.9165 80.3982 68.2315 82.2024L68.2315 82.2024C67.2627 84.7544 65.024 86.9254 62.3705 87.714Z" fill="#F7C8D0" stroke="#333333" stroke-width="0.264706"/>
<path d="M92.4028 83.5007L92.1131 83.6115L92.3935 83.744C94.3864 84.6857 95.59 86.6314 96.344 88.9179C97.0976 91.2033 97.3942 93.8058 97.5894 96.0283C97.6193 96.3679 97.4681 96.6814 97.2185 96.9155C96.9679 97.1504 96.6279 97.2952 96.304 97.2998C93.9192 97.334 91.5312 97.504 89.1538 97.6732C88.7156 97.7044 88.2778 97.7356 87.8405 97.7659L87.8405 97.7659C87.6722 97.7776 87.4531 97.8051 87.207 97.836C87.1049 97.8488 86.9982 97.8622 86.8886 97.8753C86.5105 97.9204 86.0895 97.9632 85.6746 97.9715C85.259 97.9799 84.8559 97.9536 84.5125 97.8639C84.1688 97.7741 83.8969 97.6241 83.7258 97.3945L83.7215 97.3886L83.7165 97.3833C83.6708 97.3342 83.633 97.2746 83.5995 97.2065L83.5543 97.1143L83.4537 97.1352C83.2479 97.1781 83.0328 97.1565 82.8592 97.0681C82.6889 96.9815 82.553 96.8284 82.4998 96.592C82.0048 94.3873 82.0721 91.2879 82.9402 88.62C83.8088 85.9505 85.4655 83.7483 88.1248 83.2646L88.4845 83.1992L88.1663 83.0192C88.1569 83.0139 88.1476 83.0087 88.1383 83.0034C88.0338 82.9444 87.9319 82.8868 87.829 82.822L87.829 82.822C84.8346 80.9402 83.0624 77.6783 84.518 74.2036L84.5181 74.2036C84.6509 73.8858 84.8056 73.5804 84.9721 73.2823L84.979 73.2699L84.9832 73.2564C85.353 72.0458 86.0601 70.9454 87.1002 70.1519L87.1002 70.1519C89.1999 68.55 92.4979 68.3333 94.5459 70.119C96.2499 71.605 96.9136 74.0769 96.7748 76.302C96.68 77.8218 96.2139 79.3846 95.4555 80.687C94.6967 81.9902 93.6511 83.0233 92.4028 83.5007ZM94.0481 74.0423C93.8855 73.439 93.5829 73.0353 93.1812 72.7913L93.0061 72.9832C93.4235 73.5465 93.7421 74.3027 93.9213 75.1122L94.1828 75.0843C94.1848 74.7443 94.1434 74.3954 94.0481 74.0423Z" fill="#F2A4B2" stroke="#333333" stroke-width="0.264706"/>
</svg>
