<svg width="120" height="120" viewBox="0 0 120 120" fill="none" xmlns="http://www.w3.org/2000/svg">
<path fill-rule="evenodd" clip-rule="evenodd" d="M32.2013 26.6584C33.6283 25.2314 35.9419 25.2314 37.3689 26.6584C38.7959 28.0854 38.7959 30.399 37.3689 31.826L30.0608 39.134C28.6338 40.561 26.3202 40.561 24.8932 39.134C23.4663 37.707 23.4663 35.3934 24.8932 33.9664L32.2013 26.6584ZM83.3577 26.6584C84.7847 25.2314 87.0983 25.2314 88.5253 26.6584L95.8333 33.9664C97.2603 35.3934 97.2603 37.707 95.8333 39.134C94.4063 40.561 92.0927 40.561 90.6657 39.134L83.3577 31.826C81.9307 30.399 81.9307 28.0854 83.3577 26.6584ZM60.3633 36.5502C46.2368 36.5502 34.7851 48.002 34.7851 62.1284C34.7851 76.2549 46.2368 87.7066 60.3633 87.7066C74.4898 87.7066 85.9415 76.2549 85.9415 62.1284C85.9415 48.002 74.4898 36.5502 60.3633 36.5502ZM27.477 62.1284C27.477 43.9658 42.2007 29.2422 60.3633 29.2422C78.5259 29.2422 93.2495 43.9658 93.2495 62.1284C93.2495 80.2911 78.5259 95.0147 60.3633 95.0147C42.2007 95.0147 27.477 80.2911 27.477 62.1284Z" fill="#F2A4B2" stroke="#333333" stroke-width="0.264706" stroke-linecap="round" stroke-linejoin="round"/>
<path fill-rule="evenodd" clip-rule="evenodd" d="M73.9088 52.2367C75.3358 53.6637 75.3358 55.9773 73.9088 57.4043L59.2927 72.0204C57.8657 73.4474 55.5521 73.4474 54.1251 72.0204L46.8171 64.7124C45.3901 63.2854 45.3901 60.9718 46.8171 59.5448C48.2441 58.1178 50.5577 58.1178 51.9846 59.5448L56.7089 64.2691L68.7412 52.2367C70.1682 50.8098 72.4818 50.8098 73.9088 52.2367Z" fill="#F5AE85" stroke="#333333" stroke-width="0.264706" stroke-linecap="round" stroke-linejoin="round"/>
</svg>
