<svg width="120" height="120" viewBox="0 0 120 120" fill="none" xmlns="http://www.w3.org/2000/svg">
<path d="M81.0959 64.5159V64.6482H81.2283H83.5379C84.1154 64.6482 84.6692 64.8776 85.0775 65.2859C85.4859 65.6943 85.7153 66.2481 85.7153 66.8255C85.7153 67.403 85.4859 67.9568 85.0775 68.3651C84.6692 68.7735 84.1154 69.0029 83.5379 69.0029H81.2283H81.0959V69.1352V80.6837C81.0959 81.2611 80.8665 81.8149 80.4582 82.2233C80.0498 82.6316 79.496 82.861 78.9186 82.861C78.3411 82.861 77.7873 82.6316 77.379 82.2233C76.9706 81.8149 76.7412 81.2611 76.7412 80.6837V69.1352V69.0029H76.6089H74.2992C73.7217 69.0029 73.1679 68.7735 72.7596 68.3651C72.3513 67.9568 72.1219 67.403 72.1219 66.8255C72.1219 66.2481 72.3513 65.6943 72.7596 65.2859C73.1679 64.8776 73.7217 64.6482 74.2992 64.6482H76.6089H76.7412V64.5159V62.2062C76.7412 61.6287 76.9706 61.0749 77.379 60.6666C77.7873 60.2582 78.3411 60.0288 78.9186 60.0288C79.496 60.0288 80.0498 60.2582 80.4582 60.6666C80.8665 61.0749 81.0959 61.6287 81.0959 62.2062V64.5159Z" fill="#F5AE85" stroke="#333333" stroke-width="0.264706"/>
<path d="M25.7956 50.5256H25.6633V50.658V92.2323V92.3647H25.7956H58.1313H58.2636V92.2323V50.658V50.5256H58.1313H25.7956ZM95.0863 92.3647H95.2186V92.2323V50.658V50.5256H95.0863H62.7507H62.6183V50.658V92.2323V92.3647H62.7507H95.0863ZM23.486 46.1709H97.396C97.9734 46.1709 98.5272 46.4003 98.9356 46.8087C99.3439 47.217 99.5733 47.7708 99.5733 48.3483V94.542C99.5733 95.1195 99.3439 95.6733 98.9356 96.0816C98.5272 96.49 97.9734 96.7194 97.396 96.7194H23.486C22.9085 96.7194 22.3547 96.49 21.9464 96.0816C21.538 95.6733 21.3086 95.1195 21.3086 94.542V48.3483C21.3086 47.7708 21.538 47.217 21.9464 46.8087C22.3547 46.4003 22.9085 46.1709 23.486 46.1709Z" fill="#F2A4B2" stroke="#333333" stroke-width="0.264706"/>
<path d="M37.3441 59.7643C36.7666 59.7643 36.2128 59.5349 35.8045 59.1266C35.3962 58.7183 35.1668 58.1645 35.1668 57.587V48.3483C35.1668 47.7708 35.3962 47.217 35.8045 46.8087C36.2128 46.4003 36.7666 46.1709 37.3441 46.1709C37.9216 46.1709 38.4754 46.4003 38.8837 46.8087C39.292 47.217 39.5214 47.7708 39.5214 48.3483V57.587C39.5214 58.1645 39.292 58.7183 38.8837 59.1266C38.4754 59.5349 37.9216 59.7643 37.3441 59.7643Z" fill="#F5AE85" stroke="#333333" stroke-width="0.264706"/>
<path d="M58.9022 23.7115C59.3105 23.3032 59.8643 23.0738 60.4418 23.0738C61.0192 23.0738 61.573 23.3032 61.9814 23.7115C62.3897 24.1198 62.6191 24.6736 62.6191 25.2511V34.4898C62.6191 35.0673 62.3897 35.6211 61.9814 36.0294C61.573 36.4378 61.0192 36.6672 60.4418 36.6672C59.8643 36.6672 59.3105 36.4378 58.9022 36.0294C58.4938 35.6211 58.2644 35.0673 58.2644 34.4898V25.2511C58.2644 24.6736 58.4938 24.1198 58.9022 23.7115Z" fill="#F5AE85" stroke="#333333" stroke-width="0.264706"/>
<path d="M50.777 27.2565L50.7774 27.2572L55.3968 35.258L55.3972 35.2588C55.5424 35.5065 55.6372 35.7805 55.6761 36.065C55.715 36.3495 55.6972 36.6388 55.6238 36.9165C55.5505 37.1941 55.4229 37.4544 55.2484 37.6825C55.074 37.9106 54.8562 38.102 54.6076 38.2455C54.3589 38.3891 54.0843 38.4821 53.7995 38.5191C53.5148 38.5561 53.2255 38.5364 52.9484 38.4612C52.6713 38.386 52.4118 38.2567 52.1848 38.0807C51.9579 37.9048 51.768 37.6857 51.6261 37.4361L51.6256 37.4353L47.0062 29.4346L47.0062 29.4346L47.0058 29.4338C46.8606 29.1861 46.7658 28.9121 46.7269 28.6276C46.688 28.3431 46.7058 28.0537 46.7792 27.7761C46.8526 27.4985 46.9801 27.2381 47.1546 27.01C47.329 26.7819 47.5468 26.5906 47.7955 26.447C48.0441 26.3035 48.3188 26.2105 48.6035 26.1735C48.8883 26.1365 49.1775 26.1561 49.4546 26.2314C49.7318 26.3066 49.9913 26.4359 50.2182 26.6118C50.4451 26.7878 50.635 27.0069 50.777 27.2565Z" fill="#F5AE85" stroke="#333333" stroke-width="0.264706"/>
<path d="M39.3505 38.6863L39.3505 38.6863C38.8503 38.3976 38.4853 37.922 38.3358 37.3641C38.1862 36.8062 38.2644 36.2118 38.5532 35.7116C38.8419 35.2114 39.3175 34.8464 39.8754 34.6968C40.4332 34.5473 41.0277 34.6255 41.5279 34.9143C41.5279 34.9143 41.5279 34.9143 41.5279 34.9143L49.5279 39.5332C49.528 39.5333 49.5281 39.5334 49.5283 39.5334C50.024 39.8242 50.3848 40.3001 50.5317 40.8559C50.6787 41.4118 50.5998 42.0032 50.3123 42.5011C50.0248 42.9991 49.552 43.3631 48.9972 43.5137C48.4424 43.6643 47.8506 43.5895 47.3509 43.3055C47.3508 43.3054 47.3507 43.3053 47.3505 43.3052L39.3505 38.6863Z" fill="#F5AE85" stroke="#333333" stroke-width="0.264706"/>
<path d="M71.3544 39.5317L79.1557 35.0269V35.0332L79.3565 34.9119C79.6044 34.7622 79.8795 34.6634 80.166 34.6213C80.4525 34.5792 80.7445 34.5947 81.0249 34.6668C81.3054 34.739 81.5686 34.8663 81.7992 35.0414C82.0298 35.2165 82.2231 35.4359 82.3679 35.6866C82.5127 35.9374 82.6061 36.2145 82.6425 36.5017C82.6789 36.789 82.6576 37.0806 82.5799 37.3596C82.5023 37.6385 82.3698 37.8991 82.1901 38.1262C82.0105 38.3533 81.7874 38.5423 81.5339 38.6822L81.5338 38.6821L81.5316 38.6834L73.5318 43.3028L73.531 43.3032C73.2833 43.4485 73.0093 43.5433 72.7248 43.5822C72.4403 43.6211 72.1509 43.6033 71.8733 43.5299C71.5957 43.4565 71.3353 43.3289 71.1072 43.1545C70.8791 42.9801 70.6878 42.7623 70.5442 42.5136C70.4006 42.2649 70.3076 41.9903 70.2706 41.7055C70.2336 41.4208 70.2533 41.1315 70.3285 40.8544C70.4038 40.5773 70.5331 40.3178 70.709 40.0909C70.885 39.8639 71.104 39.674 71.3537 39.5321L71.3544 39.5317Z" fill="#F5AE85" stroke="#333333" stroke-width="0.264706"/>
<path d="M70.1022 27.2554L69.9876 27.1893L70.1022 27.2554C70.3908 26.7554 70.8661 26.3905 71.4237 26.2409C71.9813 26.0913 72.5754 26.1693 73.0756 26.4576C73.3234 26.6005 73.5406 26.7909 73.7148 27.0177C73.889 27.2446 74.0168 27.5036 74.0909 27.7799C74.165 28.0562 74.1839 28.3444 74.1466 28.628C74.1092 28.9116 74.0164 29.185 73.8733 29.4327L73.8733 29.4328L69.254 37.4354L69.2535 37.4361C69.1116 37.6857 68.9217 37.9048 68.6947 38.0808C68.4678 38.2567 68.2083 38.386 67.9312 38.4612C67.6541 38.5365 67.3648 38.5562 67.0801 38.5191C66.7953 38.4821 66.5207 38.3892 66.272 38.2456C66.0233 38.102 65.8055 37.9107 65.6311 37.6826C65.4567 37.4545 65.3291 37.1941 65.2557 36.9165C65.1823 36.6389 65.1646 36.3495 65.2035 36.065C65.2423 35.7805 65.3371 35.5065 65.4824 35.2588L65.4828 35.258L70.1022 27.2554Z" fill="#F5AE85" stroke="#333333" stroke-width="0.264706"/>
<path d="M30.9977 26.9779C31.4557 27.4358 32.0768 27.6931 32.7245 27.6931C33.3019 27.6931 33.8557 27.9225 34.2641 28.3309C34.6724 28.7392 34.9018 29.293 34.9018 29.8705C34.9018 30.4479 34.6724 31.0017 34.2641 31.4101C33.8557 31.8184 33.3019 32.0478 32.7245 32.0478C32.0768 32.0478 31.4557 32.3051 30.9977 32.7631C30.5397 33.221 30.2824 33.8422 30.2824 34.4898C30.2824 35.0673 30.053 35.6211 29.6447 36.0294C29.2364 36.4378 28.6826 36.6672 28.1051 36.6672C27.5276 36.6672 26.9738 36.4378 26.5655 36.0294C26.1572 35.6211 25.9278 35.0673 25.9278 34.4898C25.9278 33.8422 25.6705 33.221 25.2125 32.7631C24.7545 32.3051 24.1334 32.0478 23.4857 32.0478C22.9082 32.0478 22.3544 31.8184 21.9461 31.4101C21.5378 31.0017 21.3084 30.4479 21.3084 29.8705C21.3084 29.293 21.5378 28.7392 21.9461 28.3309C22.3544 27.9225 22.9082 27.6931 23.4857 27.6931C24.1334 27.6931 24.7545 27.4358 25.2125 26.9779C25.6705 26.5199 25.9278 25.8988 25.9278 25.2511C25.9278 24.6736 26.1572 24.1198 26.5655 23.7115C26.9738 23.3032 27.5276 23.0738 28.1051 23.0738C28.6826 23.0738 29.2364 23.3032 29.6447 23.7115C30.053 24.1198 30.2824 24.6736 30.2824 25.2511C30.2824 25.8988 30.5397 26.5199 30.9977 26.9779Z" fill="#F5AE85" stroke="#333333" stroke-width="0.264706"/>
<path d="M95.6686 26.9779C96.1266 27.4358 96.7477 27.6931 97.3954 27.6931C97.9728 27.6931 98.5266 27.9225 98.935 28.3309C99.3433 28.7392 99.5727 29.293 99.5727 29.8705C99.5727 30.4479 99.3433 31.0017 98.935 31.4101C98.5266 31.8184 97.9728 32.0478 97.3954 32.0478C96.7477 32.0478 96.1266 32.3051 95.6686 32.7631C95.2106 33.221 94.9533 33.8422 94.9533 34.4898C94.9533 35.0673 94.7239 35.6211 94.3156 36.0294C93.9073 36.4378 93.3535 36.6672 92.776 36.6672C92.1985 36.6672 91.6447 36.4378 91.2364 36.0294C90.8281 35.6211 90.5987 35.0673 90.5987 34.4898C90.5987 33.8422 90.3414 33.221 89.8834 32.7631C89.4254 32.3051 88.8043 32.0478 88.1566 32.0478C87.5791 32.0478 87.0253 31.8184 86.617 31.4101C86.2087 31.0017 85.9793 30.4479 85.9793 29.8705C85.9793 29.293 86.2087 28.7392 86.617 28.3309C87.0253 27.9225 87.5791 27.6931 88.1566 27.6931C88.8043 27.6931 89.4254 27.4358 89.8834 26.9779C90.3414 26.5199 90.5987 25.8988 90.5987 25.2511C90.5987 24.6736 90.8281 24.1198 91.2364 23.7115C91.6447 23.3032 92.1985 23.0738 92.776 23.0738C93.3535 23.0738 93.9073 23.3032 94.3156 23.7115C94.7239 24.1198 94.9533 24.6736 94.9533 25.2511C94.9533 25.8988 95.2106 26.5199 95.6686 26.9779Z" fill="#F5AE85" stroke="#333333" stroke-width="0.264706"/>
</svg>
