<svg width="120" height="120" viewBox="0 0 120 120" fill="none" xmlns="http://www.w3.org/2000/svg">
<mask id="path-1-inside-1_22_6445" fill="white">
<path d="M84.3469 58.2169C83.132 55.4845 81.8507 53.1634 80.3943 50.9695L80.5084 51.1499C80.0468 50.4018 79.5852 49.6564 79.1342 48.8977C76.9935 45.29 75.1286 42.4037 73.2584 39.812C72.3511 38.5413 71.4571 37.4324 70.5074 36.3793L70.5366 36.4138C69.8283 35.549 68.9449 34.8566 67.9342 34.3897L67.8891 34.3711C67.6743 34.2889 67.4249 34.2385 67.1623 34.2385C67.0164 34.2385 66.8758 34.2544 66.7405 34.281L66.7538 34.2783C64.4193 34.6179 62.4695 36.0238 61.3925 37.9789L61.3739 38.0161C60.9628 38.9843 60.724 40.1117 60.724 41.2949C60.724 42.6107 61.0185 43.8601 61.549 44.9743L61.5278 44.9212L67.0376 57.1823C63.9445 57.2539 61.4615 59.7794 61.4615 62.8831C61.4615 63.0343 61.4668 63.1829 61.4801 63.3314V63.3129V71.563L60.3261 75.5024L59.1721 71.563V63.3129C59.1828 63.1855 59.1881 63.037 59.1881 62.8884C59.1881 59.782 56.7051 57.2566 53.6172 57.1903H53.6119L59.1085 44.953C59.6231 43.8813 59.9229 42.6239 59.9229 41.2949C59.9229 40.1144 59.6841 38.987 59.2544 37.963L59.2756 38.0187C58.18 36.0265 56.2302 34.6179 53.9356 34.2836L53.8958 34.2783C53.7711 34.2518 53.6305 34.2385 53.4846 34.2385C53.222 34.2385 52.9726 34.2863 52.7418 34.3738L52.7551 34.3685C51.6807 34.8699 50.7814 35.5808 50.0758 36.4562L50.0652 36.4695C49.1579 37.4749 48.2825 38.5652 47.4681 39.7059L47.3938 39.8173C45.5183 42.409 43.6508 45.2926 41.5153 48.9004C41.0723 49.6458 40.6134 50.3886 40.1571 51.1287C38.8068 53.1501 37.5202 55.4766 36.4273 57.9118L36.3026 58.2196C35.085 61.1535 34.3767 64.5597 34.3767 68.133C34.3767 71.2579 34.9179 74.2582 35.9127 77.041L35.8543 76.8553C37.0533 79.7468 38.0296 83.1344 38.6238 86.6493L38.6636 86.9331H36.8332C35.7349 86.9331 34.8436 87.8245 34.8436 88.9227V97.4408C34.8436 98.539 35.7349 99.4303 36.8332 99.4303H83.819C84.9173 99.4303 85.8086 98.539 85.8086 97.4408V88.9227C85.8086 87.8245 84.9173 86.9331 83.819 86.9331H81.986C82.6332 83.1025 83.6201 79.6884 84.9412 76.452L84.8218 76.7783C85.7423 74.2025 86.2755 71.2287 86.2755 68.133C86.2755 64.5597 85.5672 61.1509 84.2806 58.0392L84.3443 58.2142L84.3469 58.2169ZM39.5788 75.4626C38.8121 73.2793 38.3691 70.7645 38.3691 68.1462C38.3691 65.1141 38.9633 62.2199 40.0404 59.5751L39.9847 59.7263C41.1094 57.2115 42.2952 55.076 43.6428 53.0573L43.5394 53.2217C44.0116 52.4604 44.4811 51.6964 44.9374 50.9271C47.0065 47.4307 48.8131 44.6427 50.6117 42.1544C51.4207 41.0163 52.2192 40.0216 53.0681 39.0772L53.0416 39.1063C53.2618 38.8702 53.5297 38.5784 53.7738 38.3636C54.5961 38.5625 55.2752 39.0719 55.6944 39.7563L55.7023 39.7695C55.8588 40.2152 55.9464 40.7325 55.9464 41.2684C55.9464 42.0032 55.7766 42.6982 55.4768 43.3189L55.4901 43.2898L47.8183 60.363C47.7095 60.6017 47.6459 60.8829 47.6459 61.18V78.2559C47.6459 79.3542 48.5372 80.2455 49.6354 80.2455C50.7337 80.2455 51.625 79.3542 51.625 78.2559V63.3155C51.625 59.9439 55.1877 59.9518 55.193 63.3155V71.8521C55.193 71.8548 55.193 71.8574 55.193 71.8601C55.193 72.0564 55.2222 72.2474 55.2779 72.4251L55.2752 72.4119L58.318 82.8054V86.9358H42.6613C42.0352 82.6436 40.9582 78.7812 39.4594 75.1336L39.5788 75.4626ZM81.8268 95.4512H38.8201V90.9123H81.8268V95.4512ZM81.0973 75.3856C79.7125 78.7228 78.6276 82.6118 78.0254 86.6599L77.9909 86.9358H62.3342V82.8054L65.377 72.4119C65.4274 72.2474 65.4566 72.0564 65.4566 71.8601C65.4566 71.8574 65.4566 71.8548 65.4566 71.8521V63.3155C65.4539 60.745 67.5363 60.6124 68.4223 61.5169C68.799 61.9494 69.0298 62.5197 69.0298 63.1431C69.0298 63.2041 69.0272 63.2625 69.0245 63.3208V63.3129V78.2533C69.0245 79.3515 69.9159 80.2429 71.0141 80.2429C72.1124 80.2429 73.0037 79.3515 73.0037 78.2533V61.1774C73.0037 60.8829 72.9374 60.6017 72.8233 60.3497L72.8286 60.363L65.1462 43.2632C64.8703 42.677 64.7085 41.9873 64.7085 41.263C64.7085 40.7351 64.7934 40.2258 64.9525 39.751L64.9419 39.7855C65.3664 39.0798 66.0508 38.5652 66.8546 38.3689L66.8758 38.3636C67.1251 38.5864 67.409 38.8915 67.6584 39.1674C68.4621 40.0613 69.2421 41.0349 69.9689 42.0509L70.0379 42.1517C71.8312 44.64 73.6377 47.4254 75.7122 50.9297C76.1737 51.707 76.6512 52.4737 77.1208 53.243C78.3596 55.0919 79.5454 57.2221 80.5535 59.4451L80.6702 59.729C81.6942 62.2199 82.2884 65.1115 82.2884 68.1436C82.2884 70.7353 81.8533 73.2263 81.0522 75.5475L81.0999 75.3883L81.0973 75.3856ZM35.5572 50.5796C35.6898 50.3196 35.7667 50.0145 35.7667 49.6909C35.7667 48.9163 35.3237 48.2451 34.6765 47.9162L34.6658 47.9109L24.0548 42.6053C23.7948 42.4727 23.4897 42.3958 23.1661 42.3958C22.0678 42.3958 21.1765 43.2871 21.1765 44.3854C21.1765 45.16 21.6195 45.8311 22.2668 46.1601L22.2774 46.1654L32.8885 51.4709C33.1485 51.6035 33.4535 51.6805 33.7772 51.6805C34.5518 51.6805 35.2229 51.2375 35.5519 50.5902L35.5572 50.5796ZM37.6767 40.4858C38.0375 40.8572 38.5442 41.088 39.1039 41.088C40.2022 41.088 41.0935 40.1966 41.0935 39.0984C41.0935 38.5387 40.8627 38.0346 40.4913 37.6738L24.5747 21.7572C24.2166 21.4097 23.7258 21.1948 23.1873 21.1948C22.0891 21.1948 21.1977 22.0862 21.1977 23.1844C21.1977 23.7229 21.4126 24.2137 21.7628 24.5718L37.6767 40.4858ZM96.5523 42.6053L85.9412 47.9109C85.2834 48.2451 84.843 48.9163 84.843 49.6909C84.843 50.7891 85.7343 51.6805 86.8326 51.6805C87.1562 51.6805 87.4639 51.6035 87.7345 51.4656L87.7239 51.4709L98.335 46.1654C98.9929 45.8311 99.4332 45.16 99.4332 44.3854C99.4332 43.2871 98.5419 42.3958 97.4437 42.3958C97.12 42.3958 96.8123 42.4727 96.5417 42.6107L96.5523 42.6053ZM81.527 41.0694C82.0762 41.0694 82.5775 40.8466 82.9383 40.4858L98.8549 24.5692C99.2104 24.2084 99.4332 23.715 99.4332 23.1685C99.4332 22.0676 98.5419 21.1763 97.441 21.1763C96.8919 21.1763 96.3958 21.3964 96.0377 21.7546L80.1211 37.6712C79.7603 38.032 79.5375 38.528 79.5375 39.0772C79.5375 40.1754 80.4288 41.0667 81.527 41.0667V41.0694ZM72.5633 30.1877C72.8286 30.331 73.1443 30.4132 73.4785 30.4132C74.2425 30.4132 74.9084 29.9835 75.2426 29.3548L75.2479 29.3441L77.9882 24.0837C78.1262 23.8184 78.2084 23.5054 78.2084 23.1738C78.2084 22.0729 77.3171 21.1816 76.2162 21.1816C75.4548 21.1816 74.7943 21.606 74.4601 22.2321L74.4548 22.2427L71.7144 27.5031C71.5738 27.7684 71.4916 28.0841 71.4916 28.421C71.4916 29.185 71.9214 29.8482 72.5527 30.1824L72.5633 30.1877ZM45.3645 29.3441C45.7067 29.9729 46.3619 30.392 47.118 30.392C48.2162 30.392 49.1075 29.5007 49.1075 28.4024C49.1075 28.0761 49.0279 27.7658 48.8874 27.4925L48.8927 27.5031L46.1523 22.2427C45.8101 21.614 45.1549 21.1948 44.3989 21.1948C43.3006 21.1948 42.4093 22.0862 42.4093 23.1844C42.4093 23.5107 42.4889 23.8211 42.6295 24.0943L42.6242 24.0837L45.3645 29.3441Z"/>
</mask>
<path d="M84.3469 58.2169C83.132 55.4845 81.8507 53.1634 80.3943 50.9695L80.5084 51.1499C80.0468 50.4018 79.5852 49.6564 79.1342 48.8977C76.9935 45.29 75.1286 42.4037 73.2584 39.812C72.3511 38.5413 71.4571 37.4324 70.5074 36.3793L70.5366 36.4138C69.8283 35.549 68.9449 34.8566 67.9342 34.3897L67.8891 34.3711C67.6743 34.2889 67.4249 34.2385 67.1623 34.2385C67.0164 34.2385 66.8758 34.2544 66.7405 34.281L66.7538 34.2783C64.4193 34.6179 62.4695 36.0238 61.3925 37.9789L61.3739 38.0161C60.9628 38.9843 60.724 40.1117 60.724 41.2949C60.724 42.6107 61.0185 43.8601 61.549 44.9743L61.5278 44.9212L67.0376 57.1823C63.9445 57.2539 61.4615 59.7794 61.4615 62.8831C61.4615 63.0343 61.4668 63.1829 61.4801 63.3314V63.3129V71.563L60.3261 75.5024L59.1721 71.563V63.3129C59.1828 63.1855 59.1881 63.037 59.1881 62.8884C59.1881 59.782 56.7051 57.2566 53.6172 57.1903H53.6119L59.1085 44.953C59.6231 43.8813 59.9229 42.6239 59.9229 41.2949C59.9229 40.1144 59.6841 38.987 59.2544 37.963L59.2756 38.0187C58.18 36.0265 56.2302 34.6179 53.9356 34.2836L53.8958 34.2783C53.7711 34.2518 53.6305 34.2385 53.4846 34.2385C53.222 34.2385 52.9726 34.2863 52.7418 34.3738L52.7551 34.3685C51.6807 34.8699 50.7814 35.5808 50.0758 36.4562L50.0652 36.4695C49.1579 37.4749 48.2825 38.5652 47.4681 39.7059L47.3938 39.8173C45.5183 42.409 43.6508 45.2926 41.5153 48.9004C41.0723 49.6458 40.6134 50.3886 40.1571 51.1287C38.8068 53.1501 37.5202 55.4766 36.4273 57.9118L36.3026 58.2196C35.085 61.1535 34.3767 64.5597 34.3767 68.133C34.3767 71.2579 34.9179 74.2582 35.9127 77.041L35.8543 76.8553C37.0533 79.7468 38.0296 83.1344 38.6238 86.6493L38.6636 86.9331H36.8332C35.7349 86.9331 34.8436 87.8245 34.8436 88.9227V97.4408C34.8436 98.539 35.7349 99.4303 36.8332 99.4303H83.819C84.9173 99.4303 85.8086 98.539 85.8086 97.4408V88.9227C85.8086 87.8245 84.9173 86.9331 83.819 86.9331H81.986C82.6332 83.1025 83.6201 79.6884 84.9412 76.452L84.8218 76.7783C85.7423 74.2025 86.2755 71.2287 86.2755 68.133C86.2755 64.5597 85.5672 61.1509 84.2806 58.0392L84.3443 58.2142L84.3469 58.2169ZM39.5788 75.4626C38.8121 73.2793 38.3691 70.7645 38.3691 68.1462C38.3691 65.1141 38.9633 62.2199 40.0404 59.5751L39.9847 59.7263C41.1094 57.2115 42.2952 55.076 43.6428 53.0573L43.5394 53.2217C44.0116 52.4604 44.4811 51.6964 44.9374 50.9271C47.0065 47.4307 48.8131 44.6427 50.6117 42.1544C51.4207 41.0163 52.2192 40.0216 53.0681 39.0772L53.0416 39.1063C53.2618 38.8702 53.5297 38.5784 53.7738 38.3636C54.5961 38.5625 55.2752 39.0719 55.6944 39.7563L55.7023 39.7695C55.8588 40.2152 55.9464 40.7325 55.9464 41.2684C55.9464 42.0032 55.7766 42.6982 55.4768 43.3189L55.4901 43.2898L47.8183 60.363C47.7095 60.6017 47.6459 60.8829 47.6459 61.18V78.2559C47.6459 79.3542 48.5372 80.2455 49.6354 80.2455C50.7337 80.2455 51.625 79.3542 51.625 78.2559V63.3155C51.625 59.9439 55.1877 59.9518 55.193 63.3155V71.8521C55.193 71.8548 55.193 71.8574 55.193 71.8601C55.193 72.0564 55.2222 72.2474 55.2779 72.4251L55.2752 72.4119L58.318 82.8054V86.9358H42.6613C42.0352 82.6436 40.9582 78.7812 39.4594 75.1336L39.5788 75.4626ZM81.8268 95.4512H38.8201V90.9123H81.8268V95.4512ZM81.0973 75.3856C79.7125 78.7228 78.6276 82.6118 78.0254 86.6599L77.9909 86.9358H62.3342V82.8054L65.377 72.4119C65.4274 72.2474 65.4566 72.0564 65.4566 71.8601C65.4566 71.8574 65.4566 71.8548 65.4566 71.8521V63.3155C65.4539 60.745 67.5363 60.6124 68.4223 61.5169C68.799 61.9494 69.0298 62.5197 69.0298 63.1431C69.0298 63.2041 69.0272 63.2625 69.0245 63.3208V63.3129V78.2533C69.0245 79.3515 69.9159 80.2429 71.0141 80.2429C72.1124 80.2429 73.0037 79.3515 73.0037 78.2533V61.1774C73.0037 60.8829 72.9374 60.6017 72.8233 60.3497L72.8286 60.363L65.1462 43.2632C64.8703 42.677 64.7085 41.9873 64.7085 41.263C64.7085 40.7351 64.7934 40.2258 64.9525 39.751L64.9419 39.7855C65.3664 39.0798 66.0508 38.5652 66.8546 38.3689L66.8758 38.3636C67.1251 38.5864 67.409 38.8915 67.6584 39.1674C68.4621 40.0613 69.2421 41.0349 69.9689 42.0509L70.0379 42.1517C71.8312 44.64 73.6377 47.4254 75.7122 50.9297C76.1737 51.707 76.6512 52.4737 77.1208 53.243C78.3596 55.0919 79.5454 57.2221 80.5535 59.4451L80.6702 59.729C81.6942 62.2199 82.2884 65.1115 82.2884 68.1436C82.2884 70.7353 81.8533 73.2263 81.0522 75.5475L81.0999 75.3883L81.0973 75.3856ZM35.5572 50.5796C35.6898 50.3196 35.7667 50.0145 35.7667 49.6909C35.7667 48.9163 35.3237 48.2451 34.6765 47.9162L34.6658 47.9109L24.0548 42.6053C23.7948 42.4727 23.4897 42.3958 23.1661 42.3958C22.0678 42.3958 21.1765 43.2871 21.1765 44.3854C21.1765 45.16 21.6195 45.8311 22.2668 46.1601L22.2774 46.1654L32.8885 51.4709C33.1485 51.6035 33.4535 51.6805 33.7772 51.6805C34.5518 51.6805 35.2229 51.2375 35.5519 50.5902L35.5572 50.5796ZM37.6767 40.4858C38.0375 40.8572 38.5442 41.088 39.1039 41.088C40.2022 41.088 41.0935 40.1966 41.0935 39.0984C41.0935 38.5387 40.8627 38.0346 40.4913 37.6738L24.5747 21.7572C24.2166 21.4097 23.7258 21.1948 23.1873 21.1948C22.0891 21.1948 21.1977 22.0862 21.1977 23.1844C21.1977 23.7229 21.4126 24.2137 21.7628 24.5718L37.6767 40.4858ZM96.5523 42.6053L85.9412 47.9109C85.2834 48.2451 84.843 48.9163 84.843 49.6909C84.843 50.7891 85.7343 51.6805 86.8326 51.6805C87.1562 51.6805 87.4639 51.6035 87.7345 51.4656L87.7239 51.4709L98.335 46.1654C98.9929 45.8311 99.4332 45.16 99.4332 44.3854C99.4332 43.2871 98.5419 42.3958 97.4437 42.3958C97.12 42.3958 96.8123 42.4727 96.5417 42.6107L96.5523 42.6053ZM81.527 41.0694C82.0762 41.0694 82.5775 40.8466 82.9383 40.4858L98.8549 24.5692C99.2104 24.2084 99.4332 23.715 99.4332 23.1685C99.4332 22.0676 98.5419 21.1763 97.441 21.1763C96.8919 21.1763 96.3958 21.3964 96.0377 21.7546L80.1211 37.6712C79.7603 38.032 79.5375 38.528 79.5375 39.0772C79.5375 40.1754 80.4288 41.0667 81.527 41.0667V41.0694ZM72.5633 30.1877C72.8286 30.331 73.1443 30.4132 73.4785 30.4132C74.2425 30.4132 74.9084 29.9835 75.2426 29.3548L75.2479 29.3441L77.9882 24.0837C78.1262 23.8184 78.2084 23.5054 78.2084 23.1738C78.2084 22.0729 77.3171 21.1816 76.2162 21.1816C75.4548 21.1816 74.7943 21.606 74.4601 22.2321L74.4548 22.2427L71.7144 27.5031C71.5738 27.7684 71.4916 28.0841 71.4916 28.421C71.4916 29.185 71.9214 29.8482 72.5527 30.1824L72.5633 30.1877ZM45.3645 29.3441C45.7067 29.9729 46.3619 30.392 47.118 30.392C48.2162 30.392 49.1075 29.5007 49.1075 28.4024C49.1075 28.0761 49.0279 27.7658 48.8874 27.4925L48.8927 27.5031L46.1523 22.2427C45.8101 21.614 45.1549 21.1948 44.3989 21.1948C43.3006 21.1948 42.4093 22.0862 42.4093 23.1844C42.4093 23.5107 42.4889 23.8211 42.6295 24.0943L42.6242 24.0837L45.3645 29.3441Z" fill="#F5AE85" stroke="#333333" stroke-width="0.529412" mask="url(#path-1-inside-1_22_6445)"/>
<mask id="path-2-inside-2_22_6445" fill="white">
<path d="M84.3467 58.2169C83.1317 55.4846 81.8504 53.1634 80.3941 50.9695L80.5081 51.1499C80.0466 50.4019 79.585 49.6564 79.134 48.8977C76.9932 45.29 75.1283 42.4038 73.2581 39.812C72.3509 38.5413 71.4569 37.4325 70.5072 36.3793L70.5364 36.4138C69.8281 35.549 68.9447 34.8566 67.934 34.3897L67.8889 34.3712C67.674 34.2889 67.4247 34.2385 67.162 34.2385C67.0161 34.2385 66.8756 34.2544 66.7403 34.281L66.7535 34.2783C64.4191 34.6179 62.4693 36.0238 61.3923 37.9789L61.3737 38.0161C60.9625 38.9843 60.7238 40.1118 60.7238 41.2949C60.7238 42.6107 61.0182 43.8601 61.5488 44.9743L61.5276 44.9212L67.0374 57.1823C63.9442 57.254 61.4613 59.7794 61.4613 62.8831C61.4613 63.0343 61.4666 63.1829 61.4798 63.3315V63.3129V71.563L60.3259 75.5024L59.1719 71.563V63.3129C59.1825 63.1856 59.1878 63.037 59.1878 62.8884C59.1878 59.782 56.7048 57.2566 53.617 57.1903H53.6117L59.1082 44.9531C59.6229 43.8813 59.9226 42.6239 59.9226 41.2949C59.9226 40.1144 59.6839 38.987 59.2541 37.963L59.2754 38.0187C58.1798 36.0265 56.23 34.6179 53.9353 34.2836L53.8955 34.2783C53.7709 34.2518 53.6303 34.2385 53.4844 34.2385C53.2217 34.2385 52.9724 34.2863 52.7416 34.3738L52.7549 34.3685C51.6805 34.8699 50.7812 35.5808 50.0756 36.4562L50.0649 36.4695C49.1577 37.4749 48.2823 38.5652 47.4679 39.7059L47.3936 39.8173C45.5181 42.4091 43.6505 45.2926 41.5151 48.9004C41.0721 49.6458 40.6131 50.3886 40.1569 51.1287C38.8066 53.1501 37.52 55.4766 36.4271 57.9118L36.3024 58.2196C35.0848 61.1535 34.3765 64.5597 34.3765 68.133C34.3765 71.2579 34.9176 74.2582 35.9124 77.041L35.8541 76.8553C37.0531 79.7468 38.0293 83.1344 38.6236 86.6493L38.6633 86.9331H36.8329C35.7347 86.9331 34.8434 87.8245 34.8434 88.9227V97.4408C34.8434 98.539 35.7347 99.4304 36.8329 99.4304H83.8188C84.917 99.4304 85.8084 98.539 85.8084 97.4408V88.9227C85.8084 87.8245 84.917 86.9331 83.8188 86.9331H81.9857C82.633 83.1025 83.6198 79.6884 84.9409 76.4521L84.8215 76.7784C85.7421 74.2025 86.2753 71.2288 86.2753 68.133C86.2753 64.5597 85.567 61.1509 84.2804 58.0392L84.344 58.2143L84.3467 58.2169ZM39.5785 75.4626C38.8119 73.2793 38.3689 70.7645 38.3689 68.1462C38.3689 65.1141 38.9631 62.2199 40.0401 59.5751L39.9844 59.7263C41.1092 57.2115 42.295 55.076 43.6426 53.0573L43.5391 53.2218C44.0113 52.4604 44.4809 51.6964 44.9371 50.9271C47.0063 47.4308 48.8128 44.6427 50.6114 42.1544C51.4205 41.0164 52.219 40.0216 53.0679 39.0772L53.0414 39.1064C53.2615 38.8703 53.5295 38.5785 53.7735 38.3636C54.5959 38.5625 55.275 39.0719 55.6941 39.7563L55.7021 39.7696C55.8586 40.2152 55.9461 40.7325 55.9461 41.2684C55.9461 42.0032 55.7764 42.6982 55.4766 43.319L55.4899 43.2898L47.8181 60.363C47.7093 60.6018 47.6456 60.8829 47.6456 61.1801V78.2559C47.6456 79.3542 48.537 80.2455 49.6352 80.2455C50.7334 80.2455 51.6248 79.3542 51.6248 78.2559V63.3155C51.6248 59.9439 55.1874 59.9518 55.1928 63.3155V71.8522C55.1928 71.8548 55.1928 71.8575 55.1928 71.8601C55.1928 72.0564 55.2219 72.2474 55.2776 72.4252L55.275 72.4119L58.3177 82.8054V86.9358H42.6611C42.035 82.6436 40.958 78.7812 39.4592 75.1336L39.5785 75.4626ZM81.8266 95.4512H38.8199V90.9123H81.8266V95.4512ZM81.0971 75.3856C79.7123 78.7228 78.6273 82.6118 78.0251 86.6599L77.9907 86.9358H62.334V82.8054L65.3767 72.4119C65.4271 72.2474 65.4563 72.0564 65.4563 71.8601C65.4563 71.8575 65.4563 71.8548 65.4563 71.8522V63.3155C65.4537 60.745 67.5361 60.6124 68.4221 61.517C68.7988 61.9494 69.0296 62.5197 69.0296 63.1431C69.0296 63.2041 69.027 63.2625 69.0243 63.3208V63.3129V78.2533C69.0243 79.3515 69.9156 80.2429 71.0139 80.2429C72.1121 80.2429 73.0035 79.3515 73.0035 78.2533V61.1774C73.0035 60.8829 72.9371 60.6018 72.8231 60.3497L72.8284 60.363L65.1459 43.2632C64.8701 42.677 64.7082 41.9873 64.7082 41.2631C64.7082 40.7352 64.7931 40.2258 64.9523 39.751L64.9417 39.7855C65.3661 39.0798 66.0505 38.5652 66.8543 38.3689L66.8755 38.3636C67.1249 38.5864 67.4088 38.8915 67.6581 39.1674C68.4619 40.0614 69.2418 41.0349 69.9687 42.0509L70.0377 42.1517C71.8309 44.64 73.6375 47.4254 75.7119 50.9298C76.1735 51.707 76.651 52.4737 77.1206 53.243C78.3594 55.0919 79.5452 57.2221 80.5532 59.4451L80.67 59.729C81.6939 62.2199 82.2881 65.1115 82.2881 68.1436C82.2881 70.7353 81.8531 73.2263 81.052 75.5475L81.0997 75.3883L81.0971 75.3856Z"/>
</mask>
<path d="M84.3467 58.2169C83.1317 55.4846 81.8504 53.1634 80.3941 50.9695L80.5081 51.1499C80.0466 50.4019 79.585 49.6564 79.134 48.8977C76.9932 45.29 75.1283 42.4038 73.2581 39.812C72.3509 38.5413 71.4569 37.4325 70.5072 36.3793L70.5364 36.4138C69.8281 35.549 68.9447 34.8566 67.934 34.3897L67.8889 34.3712C67.674 34.2889 67.4247 34.2385 67.162 34.2385C67.0161 34.2385 66.8756 34.2544 66.7403 34.281L66.7535 34.2783C64.4191 34.6179 62.4693 36.0238 61.3923 37.9789L61.3737 38.0161C60.9625 38.9843 60.7238 40.1118 60.7238 41.2949C60.7238 42.6107 61.0182 43.8601 61.5488 44.9743L61.5276 44.9212L67.0374 57.1823C63.9442 57.254 61.4613 59.7794 61.4613 62.8831C61.4613 63.0343 61.4666 63.1829 61.4798 63.3315V63.3129V71.563L60.3259 75.5024L59.1719 71.563V63.3129C59.1825 63.1856 59.1878 63.037 59.1878 62.8884C59.1878 59.782 56.7048 57.2566 53.617 57.1903H53.6117L59.1082 44.9531C59.6229 43.8813 59.9226 42.6239 59.9226 41.2949C59.9226 40.1144 59.6839 38.987 59.2541 37.963L59.2754 38.0187C58.1798 36.0265 56.23 34.6179 53.9353 34.2836L53.8955 34.2783C53.7709 34.2518 53.6303 34.2385 53.4844 34.2385C53.2217 34.2385 52.9724 34.2863 52.7416 34.3738L52.7549 34.3685C51.6805 34.8699 50.7812 35.5808 50.0756 36.4562L50.0649 36.4695C49.1577 37.4749 48.2823 38.5652 47.4679 39.7059L47.3936 39.8173C45.5181 42.4091 43.6505 45.2926 41.5151 48.9004C41.0721 49.6458 40.6131 50.3886 40.1569 51.1287C38.8066 53.1501 37.52 55.4766 36.4271 57.9118L36.3024 58.2196C35.0848 61.1535 34.3765 64.5597 34.3765 68.133C34.3765 71.2579 34.9176 74.2582 35.9124 77.041L35.8541 76.8553C37.0531 79.7468 38.0293 83.1344 38.6236 86.6493L38.6633 86.9331H36.8329C35.7347 86.9331 34.8434 87.8245 34.8434 88.9227V97.4408C34.8434 98.539 35.7347 99.4304 36.8329 99.4304H83.8188C84.917 99.4304 85.8084 98.539 85.8084 97.4408V88.9227C85.8084 87.8245 84.917 86.9331 83.8188 86.9331H81.9857C82.633 83.1025 83.6198 79.6884 84.9409 76.4521L84.8215 76.7784C85.7421 74.2025 86.2753 71.2288 86.2753 68.133C86.2753 64.5597 85.567 61.1509 84.2804 58.0392L84.344 58.2143L84.3467 58.2169ZM39.5785 75.4626C38.8119 73.2793 38.3689 70.7645 38.3689 68.1462C38.3689 65.1141 38.9631 62.2199 40.0401 59.5751L39.9844 59.7263C41.1092 57.2115 42.295 55.076 43.6426 53.0573L43.5391 53.2218C44.0113 52.4604 44.4809 51.6964 44.9371 50.9271C47.0063 47.4308 48.8128 44.6427 50.6114 42.1544C51.4205 41.0164 52.219 40.0216 53.0679 39.0772L53.0414 39.1064C53.2615 38.8703 53.5295 38.5785 53.7735 38.3636C54.5959 38.5625 55.275 39.0719 55.6941 39.7563L55.7021 39.7696C55.8586 40.2152 55.9461 40.7325 55.9461 41.2684C55.9461 42.0032 55.7764 42.6982 55.4766 43.319L55.4899 43.2898L47.8181 60.363C47.7093 60.6018 47.6456 60.8829 47.6456 61.1801V78.2559C47.6456 79.3542 48.537 80.2455 49.6352 80.2455C50.7334 80.2455 51.6248 79.3542 51.6248 78.2559V63.3155C51.6248 59.9439 55.1874 59.9518 55.1928 63.3155V71.8522C55.1928 71.8548 55.1928 71.8575 55.1928 71.8601C55.1928 72.0564 55.2219 72.2474 55.2776 72.4252L55.275 72.4119L58.3177 82.8054V86.9358H42.6611C42.035 82.6436 40.958 78.7812 39.4592 75.1336L39.5785 75.4626ZM81.8266 95.4512H38.8199V90.9123H81.8266V95.4512ZM81.0971 75.3856C79.7123 78.7228 78.6273 82.6118 78.0251 86.6599L77.9907 86.9358H62.334V82.8054L65.3767 72.4119C65.4271 72.2474 65.4563 72.0564 65.4563 71.8601C65.4563 71.8575 65.4563 71.8548 65.4563 71.8522V63.3155C65.4537 60.745 67.5361 60.6124 68.4221 61.517C68.7988 61.9494 69.0296 62.5197 69.0296 63.1431C69.0296 63.2041 69.027 63.2625 69.0243 63.3208V63.3129V78.2533C69.0243 79.3515 69.9156 80.2429 71.0139 80.2429C72.1121 80.2429 73.0035 79.3515 73.0035 78.2533V61.1774C73.0035 60.8829 72.9371 60.6018 72.8231 60.3497L72.8284 60.363L65.1459 43.2632C64.8701 42.677 64.7082 41.9873 64.7082 41.2631C64.7082 40.7352 64.7931 40.2258 64.9523 39.751L64.9417 39.7855C65.3661 39.0798 66.0505 38.5652 66.8543 38.3689L66.8755 38.3636C67.1249 38.5864 67.4088 38.8915 67.6581 39.1674C68.4619 40.0614 69.2418 41.0349 69.9687 42.0509L70.0377 42.1517C71.8309 44.64 73.6375 47.4254 75.7119 50.9298C76.1735 51.707 76.651 52.4737 77.1206 53.243C78.3594 55.0919 79.5452 57.2221 80.5532 59.4451L80.67 59.729C81.6939 62.2199 82.2881 65.1115 82.2881 68.1436C82.2881 70.7353 81.8531 73.2263 81.052 75.5475L81.0997 75.3883L81.0971 75.3856Z" fill="#F2A4B2" stroke="#333333" stroke-width="0.529412" mask="url(#path-2-inside-2_22_6445)"/>
</svg>
