<svg width="120" height="120" viewBox="0 0 120 120" fill="none" xmlns="http://www.w3.org/2000/svg">
<mask id="path-1-inside-1_22_6463" fill="white">
<path d="M84.3465 58.2172C83.1315 55.4848 81.8502 53.1636 80.3938 50.9698L80.5079 51.1502C80.0463 50.4021 79.5847 49.6567 79.1338 48.898C76.993 45.2902 75.1281 42.404 73.2579 39.8122C72.3506 38.5416 71.4566 37.4327 70.507 36.3796L70.5361 36.414C69.8278 35.5492 68.9445 34.8569 67.9338 34.39L67.8887 34.3714C67.6738 34.2892 67.4244 34.2388 67.1618 34.2388C67.0159 34.2388 66.8753 34.2547 66.74 34.2812L66.7533 34.2786C64.4188 34.6181 62.4691 36.0241 61.392 37.9792L61.3735 38.0163C60.9623 38.9846 60.7235 40.112 60.7235 41.2951C60.7235 42.6109 61.018 43.8604 61.5485 44.9745L61.5273 44.9215L67.0371 57.1826C63.944 57.2542 61.461 59.7796 61.461 62.8834C61.461 63.0346 61.4663 63.1831 61.4796 63.3317V63.3131V71.5632L60.3256 75.5026L59.1717 71.5632V63.3131C59.1823 63.1858 59.1876 63.0372 59.1876 62.8887C59.1876 59.7823 56.7046 57.2569 53.6168 57.1905H53.6115L59.108 44.9533C59.6226 43.8816 59.9224 42.6242 59.9224 41.2951C59.9224 40.1147 59.6836 38.9872 59.2539 37.9633L59.2751 38.019C58.1795 36.0267 56.2297 34.6181 53.9351 34.2839L53.8953 34.2786C53.7706 34.252 53.63 34.2388 53.4841 34.2388C53.2215 34.2388 52.9721 34.2865 52.7414 34.3741L52.7546 34.3688C51.6802 34.8701 50.781 35.5811 50.0753 36.4565L50.0647 36.4697C49.1575 37.4751 48.282 38.5654 47.4676 39.7061L47.3934 39.8175C45.5179 42.4093 43.6503 45.2929 41.5148 48.9006C41.0718 49.6461 40.6129 50.3888 40.1566 51.129C38.8063 53.1504 37.5198 55.4768 36.4268 57.9121L36.3021 58.2198C35.0845 61.1538 34.3762 64.5599 34.3762 68.1332C34.3762 71.2582 34.9174 74.2585 35.9122 77.0412L35.8538 76.8555C37.0529 79.747 38.0291 83.1346 38.6233 86.6495L38.6631 86.9334H36.8327C35.7344 86.9334 34.8431 87.8247 34.8431 88.923V97.441C34.8431 98.5393 35.7344 99.4306 36.8327 99.4306H83.8186C84.9168 99.4306 85.8081 98.5393 85.8081 97.441V88.923C85.8081 87.8247 84.9168 86.9334 83.8186 86.9334H81.9855C82.6328 83.1028 83.6196 79.6887 84.9407 76.4523L84.8213 76.7786C85.7418 74.2028 86.275 71.229 86.275 68.1332C86.275 64.5599 85.5667 61.1511 84.2801 58.0394L84.3438 58.2145L84.3465 58.2172ZM39.5783 75.4628C38.8117 73.2796 38.3686 70.7648 38.3686 68.1465C38.3686 65.1144 38.9629 62.2202 40.0399 59.5754L39.9842 59.7266C41.109 57.2118 42.2947 55.0763 43.6423 53.0575L43.5389 53.222C44.0111 52.4606 44.4806 51.6966 44.9369 50.9273C47.0061 47.431 48.8126 44.6429 50.6112 42.1546C51.4203 41.0166 52.2188 40.0218 53.0676 39.0774L53.0411 39.1066C53.2613 38.8705 53.5292 38.5787 53.7733 38.3638C54.5956 38.5628 55.2747 39.0721 55.6939 39.7565L55.7018 39.7698C55.8584 40.2155 55.9459 40.7328 55.9459 41.2686C55.9459 42.0034 55.7761 42.6985 55.4764 43.3192L55.4896 43.29L47.8178 60.3633C47.709 60.602 47.6454 60.8832 47.6454 61.1803V78.2562C47.6454 79.3544 48.5367 80.2458 49.635 80.2458C50.7332 80.2458 51.6245 79.3544 51.6245 78.2562V63.3158C51.6245 59.9441 55.1872 59.9521 55.1925 63.3158V71.8524C55.1925 71.855 55.1925 71.8577 55.1925 71.8604C55.1925 72.0567 55.2217 72.2477 55.2774 72.4254L55.2747 72.4121L58.3175 82.8057V86.9361H42.6608C42.0348 82.6439 40.9577 78.7814 39.4589 75.1339L39.5783 75.4628ZM81.8263 95.4514H38.8196V90.9125H81.8263V95.4514ZM81.0968 75.3859C79.7121 78.7231 78.6271 82.612 78.0249 86.6602L77.9904 86.9361H62.3338V82.8057L65.3765 72.4121C65.4269 72.2477 65.4561 72.0567 65.4561 71.8604C65.4561 71.8577 65.4561 71.855 65.4561 71.8524V63.3158C65.4534 60.7452 67.5358 60.6126 68.4219 61.5172C68.7986 61.9496 69.0294 62.5199 69.0294 63.1433C69.0294 63.2044 69.0267 63.2627 69.0241 63.3211V63.3131V78.2535C69.0241 79.3518 69.9154 80.2431 71.0136 80.2431C72.1119 80.2431 73.0032 79.3518 73.0032 78.2535V61.1777C73.0032 60.8832 72.9369 60.602 72.8228 60.35L72.8281 60.3633L65.1457 43.2635C64.8698 42.6772 64.708 41.9875 64.708 41.2633C64.708 40.7354 64.7929 40.2261 64.9521 39.7512L64.9414 39.7857C65.3659 39.0801 66.0503 38.5654 66.8541 38.3691L66.8753 38.3638C67.1247 38.5867 67.4085 38.8917 67.6579 39.1676C68.4617 40.0616 69.2416 41.0352 69.9684 42.0512L70.0374 42.152C71.8307 44.6403 73.6372 47.4257 75.7117 50.93C76.1733 51.7073 76.6508 52.4739 77.1203 53.2432C78.3591 55.0922 79.5449 57.2224 80.553 59.4454L80.6697 59.7292C81.6937 62.2202 82.2879 65.1117 82.2879 68.1438C82.2879 70.7356 81.8528 73.2265 81.0517 75.5477L81.0995 75.3885L81.0968 75.3859Z"/>
</mask>
<path d="M84.3465 58.2172C83.1315 55.4848 81.8502 53.1636 80.3938 50.9698L80.5079 51.1502C80.0463 50.4021 79.5847 49.6567 79.1338 48.898C76.993 45.2902 75.1281 42.404 73.2579 39.8122C72.3506 38.5416 71.4566 37.4327 70.507 36.3796L70.5361 36.414C69.8278 35.5492 68.9445 34.8569 67.9338 34.39L67.8887 34.3714C67.6738 34.2892 67.4244 34.2388 67.1618 34.2388C67.0159 34.2388 66.8753 34.2547 66.74 34.2812L66.7533 34.2786C64.4188 34.6181 62.4691 36.0241 61.392 37.9792L61.3735 38.0163C60.9623 38.9846 60.7235 40.112 60.7235 41.2951C60.7235 42.6109 61.018 43.8604 61.5485 44.9745L61.5273 44.9215L67.0371 57.1826C63.944 57.2542 61.461 59.7796 61.461 62.8834C61.461 63.0346 61.4663 63.1831 61.4796 63.3317V63.3131V71.5632L60.3256 75.5026L59.1717 71.5632V63.3131C59.1823 63.1858 59.1876 63.0372 59.1876 62.8887C59.1876 59.7823 56.7046 57.2569 53.6168 57.1905H53.6115L59.108 44.9533C59.6226 43.8816 59.9224 42.6242 59.9224 41.2951C59.9224 40.1147 59.6836 38.9872 59.2539 37.9633L59.2751 38.019C58.1795 36.0267 56.2297 34.6181 53.9351 34.2839L53.8953 34.2786C53.7706 34.252 53.63 34.2388 53.4841 34.2388C53.2215 34.2388 52.9721 34.2865 52.7414 34.3741L52.7546 34.3688C51.6802 34.8701 50.781 35.5811 50.0753 36.4565L50.0647 36.4697C49.1575 37.4751 48.282 38.5654 47.4676 39.7061L47.3934 39.8175C45.5179 42.4093 43.6503 45.2929 41.5148 48.9006C41.0718 49.6461 40.6129 50.3888 40.1566 51.129C38.8063 53.1504 37.5198 55.4768 36.4268 57.9121L36.3021 58.2198C35.0845 61.1538 34.3762 64.5599 34.3762 68.1332C34.3762 71.2582 34.9174 74.2585 35.9122 77.0412L35.8538 76.8555C37.0529 79.747 38.0291 83.1346 38.6233 86.6495L38.6631 86.9334H36.8327C35.7344 86.9334 34.8431 87.8247 34.8431 88.923V97.441C34.8431 98.5393 35.7344 99.4306 36.8327 99.4306H83.8186C84.9168 99.4306 85.8081 98.5393 85.8081 97.441V88.923C85.8081 87.8247 84.9168 86.9334 83.8186 86.9334H81.9855C82.6328 83.1028 83.6196 79.6887 84.9407 76.4523L84.8213 76.7786C85.7418 74.2028 86.275 71.229 86.275 68.1332C86.275 64.5599 85.5667 61.1511 84.2801 58.0394L84.3438 58.2145L84.3465 58.2172ZM39.5783 75.4628C38.8117 73.2796 38.3686 70.7648 38.3686 68.1465C38.3686 65.1144 38.9629 62.2202 40.0399 59.5754L39.9842 59.7266C41.109 57.2118 42.2947 55.0763 43.6423 53.0575L43.5389 53.222C44.0111 52.4606 44.4806 51.6966 44.9369 50.9273C47.0061 47.431 48.8126 44.6429 50.6112 42.1546C51.4203 41.0166 52.2188 40.0218 53.0676 39.0774L53.0411 39.1066C53.2613 38.8705 53.5292 38.5787 53.7733 38.3638C54.5956 38.5628 55.2747 39.0721 55.6939 39.7565L55.7018 39.7698C55.8584 40.2155 55.9459 40.7328 55.9459 41.2686C55.9459 42.0034 55.7761 42.6985 55.4764 43.3192L55.4896 43.29L47.8178 60.3633C47.709 60.602 47.6454 60.8832 47.6454 61.1803V78.2562C47.6454 79.3544 48.5367 80.2458 49.635 80.2458C50.7332 80.2458 51.6245 79.3544 51.6245 78.2562V63.3158C51.6245 59.9441 55.1872 59.9521 55.1925 63.3158V71.8524C55.1925 71.855 55.1925 71.8577 55.1925 71.8604C55.1925 72.0567 55.2217 72.2477 55.2774 72.4254L55.2747 72.4121L58.3175 82.8057V86.9361H42.6608C42.0348 82.6439 40.9577 78.7814 39.4589 75.1339L39.5783 75.4628ZM81.8263 95.4514H38.8196V90.9125H81.8263V95.4514ZM81.0968 75.3859C79.7121 78.7231 78.6271 82.612 78.0249 86.6602L77.9904 86.9361H62.3338V82.8057L65.3765 72.4121C65.4269 72.2477 65.4561 72.0567 65.4561 71.8604C65.4561 71.8577 65.4561 71.855 65.4561 71.8524V63.3158C65.4534 60.7452 67.5358 60.6126 68.4219 61.5172C68.7986 61.9496 69.0294 62.5199 69.0294 63.1433C69.0294 63.2044 69.0267 63.2627 69.0241 63.3211V63.3131V78.2535C69.0241 79.3518 69.9154 80.2431 71.0136 80.2431C72.1119 80.2431 73.0032 79.3518 73.0032 78.2535V61.1777C73.0032 60.8832 72.9369 60.602 72.8228 60.35L72.8281 60.3633L65.1457 43.2635C64.8698 42.6772 64.708 41.9875 64.708 41.2633C64.708 40.7354 64.7929 40.2261 64.9521 39.7512L64.9414 39.7857C65.3659 39.0801 66.0503 38.5654 66.8541 38.3691L66.8753 38.3638C67.1247 38.5867 67.4085 38.8917 67.6579 39.1676C68.4617 40.0616 69.2416 41.0352 69.9684 42.0512L70.0374 42.152C71.8307 44.6403 73.6372 47.4257 75.7117 50.93C76.1733 51.7073 76.6508 52.4739 77.1203 53.2432C78.3591 55.0922 79.5449 57.2224 80.553 59.4454L80.6697 59.7292C81.6937 62.2202 82.2879 65.1117 82.2879 68.1438C82.2879 70.7356 81.8528 73.2265 81.0517 75.5477L81.0995 75.3885L81.0968 75.3859Z" fill="#F2A4B2" stroke="#333333" stroke-width="0.529412" mask="url(#path-1-inside-1_22_6463)"/>
<path d="M93.0623 41.1608C92.8272 41.3371 92.468 41.2505 92.3326 40.9945C91.4576 39.3405 89.8866 38.6364 88.4666 38.7761C87.0487 38.9156 85.7752 39.8956 85.4807 41.6385L85.4807 41.6385C85.2571 42.9607 85.5548 44.058 86.162 45.1452C86.6668 46.049 87.3807 46.9385 88.1865 47.9426C88.3567 48.1547 88.531 48.3719 88.7083 48.5954C89.7353 49.89 91.6148 50.3091 93.0983 49.5796M93.0623 41.1608L92.9828 41.0549M93.0623 41.1608C93.0622 41.1608 93.0622 41.1608 93.0621 41.1609L92.9828 41.0549M93.0623 41.1608C94.5604 40.0402 96.2697 40.065 97.4914 40.7801C98.7117 41.4944 99.4511 42.8989 99.0119 44.5692C98.659 45.911 97.9082 46.8054 96.8832 47.5434C96.0313 48.1568 94.9973 48.6577 93.845 49.2159C93.6012 49.334 93.3521 49.4547 93.0983 49.5796M92.9828 41.0549C92.8144 41.1813 92.5478 41.1184 92.4496 40.9326C90.6493 37.5298 85.9604 38.0056 85.3502 41.6164L92.9828 41.0549ZM93.0983 49.5796L93.1567 49.6983L93.0983 49.5796C93.0983 49.5796 93.0983 49.5796 93.0983 49.5796Z" fill="#F5AE85" stroke="#333333" stroke-width="0.264706"/>
<path d="M36.7286 25.0355C37.1671 25.474 37.7618 25.7204 38.382 25.7204C38.9319 25.7204 39.4593 25.9389 39.8482 26.3277C40.237 26.7166 40.4555 27.244 40.4555 27.7939C40.4555 28.3438 40.237 28.8713 39.8482 29.2601C39.4593 29.649 38.9319 29.8674 38.382 29.8674C37.7618 29.8674 37.1671 30.1138 36.7286 30.5523C36.2901 30.9908 36.0437 31.5855 36.0437 32.2057C36.0437 32.7556 35.8253 33.283 35.4364 33.6719C35.0475 34.0607 34.5201 34.2792 33.9702 34.2792C33.4203 34.2792 32.8928 34.0607 32.504 33.6719C32.1151 33.283 31.8967 32.7556 31.8967 32.2057C31.8967 31.5855 31.6503 30.9908 31.2118 30.5523C30.7733 30.1138 30.1786 29.8674 29.5584 29.8674C29.0085 29.8674 28.4811 29.649 28.0922 29.2601C27.7034 28.8713 27.4849 28.3438 27.4849 27.7939C27.4849 27.244 27.7034 26.7166 28.0922 26.3277C28.4811 25.9389 29.0085 25.7204 29.5584 25.7204C30.1786 25.7204 30.7733 25.474 31.2118 25.0355C31.6503 24.597 31.8967 24.0023 31.8967 23.3822C31.8967 22.8322 32.1151 22.3048 32.504 21.916C32.8928 21.5271 33.4203 21.3086 33.9702 21.3086C34.5201 21.3086 35.0475 21.5271 35.4364 21.916C35.8253 22.3048 36.0437 22.8322 36.0437 23.3822C36.0437 24.0023 36.2901 24.597 36.7286 25.0355Z" fill="#F5AE85" stroke="#333333" stroke-width="0.264706"/>
</svg>
